<?xml version="1.0" encoding="UTF-8" standalone="no"?>
<!-- Created with Inkscape (http://www.inkscape.org/) -->

<svg
   xmlns:osb="http://www.openswatchbook.org/uri/2009/osb"
   xmlns:dc="http://purl.org/dc/elements/1.1/"
   xmlns:cc="http://creativecommons.org/ns#"
   xmlns:rdf="http://www.w3.org/1999/02/22-rdf-syntax-ns#"
   xmlns:svg="http://www.w3.org/2000/svg"
   xmlns="http://www.w3.org/2000/svg"
   xmlns:xlink="http://www.w3.org/1999/xlink"
   xmlns:sodipodi="http://sodipodi.sourceforge.net/DTD/sodipodi-0.dtd"
   xmlns:inkscape="http://www.inkscape.org/namespaces/inkscape"
   width="216.31267"
   height="119.12495"
   id="svg3873"
   version="1.1"
   inkscape:version="0.91 r13725"
   sodipodi:docname="ELIXIR_Dna_white2.svg"
   inkscape:export-filename="/home/jmfernandez/docs/Logos/ELIXIR-Spain.png"
   inkscape:export-xdpi="300"
   inkscape:export-ydpi="300">
  <defs
     id="defs3875">
    <linearGradient
       inkscape:collect="always"
       id="linearGradient6696">
      <stop
         style="stop-color:#28220b;stop-opacity:1;"
         offset="0"
         id="stop6698" />
      <stop
         style="stop-color:#28220b;stop-opacity:0;"
         offset="1"
         id="stop6700" />
    </linearGradient>
    <linearGradient
       id="linearGradient6455"
       osb:paint="solid">
      <stop
         style="stop-color:#f46b17;stop-opacity:1;"
         offset="0"
         id="stop6457" />
    </linearGradient>
    <linearGradient
       inkscape:collect="always"
       xlink:href="#linearGradient6696"
       id="linearGradient6702"
       x1="796.90558"
       y1="284.87436"
       x2="797.83026"
       y2="378.11447"
       gradientUnits="userSpaceOnUse" />
  </defs>
  <sodipodi:namedview
     id="base"
     pagecolor="#ffffff"
     bordercolor="#666666"
     borderopacity="1.0"
     inkscape:pageopacity="0.0"
     inkscape:pageshadow="2"
     inkscape:zoom="2.8284271"
     inkscape:cx="305.08364"
     inkscape:cy="73.503935"
     inkscape:document-units="px"
     inkscape:current-layer="layer1"
     showgrid="false"
     fit-margin-top="0"
     fit-margin-left="0"
     fit-margin-right="0"
     fit-margin-bottom="0"
     inkscape:window-width="1855"
     inkscape:window-height="1056"
     inkscape:window-x="65"
     inkscape:window-y="24"
     inkscape:window-maximized="1" />
  <metadata
     id="metadata3878">
    <rdf:RDF>
      <cc:Work
         rdf:about="">
        <dc:format>image/svg+xml</dc:format>
        <dc:type
           rdf:resource="http://purl.org/dc/dcmitype/StillImage" />
        <dc:title></dc:title>
      </cc:Work>
    </rdf:RDF>
  </metadata>
  <g
     inkscape:label="Layer 1"
     inkscape:groupmode="layer"
     id="layer1"
     transform="translate(-656.71352,-277.57001)">
    <path
       style="fill:#f46b17;fill-opacity:1;fill-rule:nonzero;stroke:none"
       d="M 176.97266 0 C 172.02609 0 168.01953 4.0085181 168.01953 8.9550781 C 168.01953 10.503168 168.41329 11.958002 169.10156 13.232422 C 168.21314 13.673572 166.13672 14.715406 163.23047 16.222656 C 162.14803 14.008746 159.87885 12.476562 157.24219 12.476562 C 153.56189 12.476562 150.57617 15.460228 150.57617 19.142578 C 150.57617 20.372068 150.91606 21.519313 151.49609 22.507812 C 150.00109 23.334963 148.45035 24.201066 146.85938 25.097656 C 145.92399 23.678226 144.31449 22.732422 142.48047 22.732422 C 139.59054 22.732422 137.24805 25.078743 137.24805 27.970703 C 137.24805 28.828483 137.45279 29.634886 137.81836 30.347656 C 136.17223 31.330026 134.51209 32.334115 132.84961 33.359375 C 132.1838 32.797735 131.32433 32.458984 130.38281 32.458984 C 128.27307 32.458984 126.55859 34.167517 126.55859 36.279297 C 126.55859 36.618327 126.60976 36.945246 126.69141 37.259766 C 119.99864 41.611996 113.59371 46.167903 108.4082 50.595703 C 102.35878 37.073343 93.438837 22.227399 81.023438 10.136719 L 80.986328 10.099609 C 79.534218 8.6679294 78.32937 9.2990613 80 11.082031 C 80.0204 11.104531 80.044053 11.128038 80.064453 11.148438 C 90.602943 22.489577 98.880621 38.897165 104.51953 53.859375 C 100.16867 57.57486 95.732872 62.003273 91.634766 66.787109 L 99.679688 66.787109 C 101.68029 64.34368 103.88675 61.791242 106.33008 59.115234 C 106.35258 59.096834 106.37418 59.073328 106.39258 59.048828 L 110.28711 54.972656 C 115.74628 49.540026 122.04734 44.348504 128.47461 39.589844 C 129.03625 39.912534 129.6884 40.101562 130.38281 40.101562 C 132.49662 40.101562 134.20898 38.389037 134.20898 36.279297 C 134.20898 36.019917 134.18181 35.774377 134.13281 35.529297 C 135.84021 34.336567 137.53978 33.17966 139.22266 32.0625 C 140.11721 32.77732 141.25097 33.208984 142.48047 33.208984 C 145.37447 33.208984 147.71875 30.862653 147.71875 27.970703 C 147.71875 27.535683 147.65862 27.111151 147.56055 26.712891 C 149.23528 25.667211 150.86544 24.679627 152.42578 23.742188 C 153.64303 25.014567 155.34689 25.808594 157.24219 25.808594 C 160.92249 25.808594 163.91016 22.820838 163.91016 19.142578 C 163.91016 18.497198 163.8123 17.869721 163.63867 17.275391 C 166.48365 15.692581 168.56123 14.571947 169.57422 13.998047 C 171.18564 16.354917 173.89689 17.912109 176.97266 17.912109 C 181.91717 17.912109 185.92383 13.901628 185.92383 8.9550781 C 185.92383 4.0085181 181.91717 0 176.97266 0 z M 76.525391 90.714844 C 71.986251 102.55452 73.07223 113.3628 85.386719 118.66406 C 89.150759 120.28364 90.865577 117.18833 89.248047 116.23047 C 88.953966 116.063 77.443353 109.83593 84.761719 90.714844 L 76.525391 90.714844 z "
       transform="translate(656.71352,277.57001)"
       id="path238-9" />
    <flowRoot
       xml:space="preserve"
       id="flowRoot3371"
       style="font-style:italic;font-variant:normal;font-weight:500;font-stretch:normal;font-size:40px;line-height:125%;font-family:'URW Chancery L';-inkscape-font-specification:'URW Chancery L Medium Italic';letter-spacing:0px;word-spacing:0px;fill:#000000;fill-opacity:1;stroke:none;stroke-width:1px;stroke-linecap:butt;stroke-linejoin:miter;stroke-opacity:1"
       transform="translate(463.02514,335.90745)"><flowRegion
         id="flowRegion3373"><rect
           id="rect3375"
           width="122.22845"
           height="53.033009"
           x="16.162441"
           y="16.846004"
           style="font-style:italic;font-variant:normal;font-weight:500;font-stretch:normal;font-family:'URW Chancery L';-inkscape-font-specification:'URW Chancery L Medium Italic'" /></flowRegion><flowPara
         id="flowPara3377">openEbenc</flowPara></flowRoot>    <flowRoot
       xml:space="preserve"
       id="flowRoot3379"
       style="font-style:italic;font-variant:normal;font-weight:500;font-stretch:normal;font-size:40px;line-height:125%;font-family:'URW Chancery L';-inkscape-font-specification:'URW Chancery L Medium Italic';letter-spacing:0px;word-spacing:0px;fill:#000000;fill-opacity:1;stroke:none;stroke-width:1px;stroke-linecap:butt;stroke-linejoin:miter;stroke-opacity:1"
       transform="translate(463.02514,335.90745)"><flowRegion
         id="flowRegion3381"><rect
           id="rect3383"
           width="164.65486"
           height="56.063465"
           x="-106.57109"
           y="14.320622"
           style="font-style:italic;font-variant:normal;font-weight:500;font-stretch:normal;font-family:'URW Chancery L';-inkscape-font-specification:'URW Chancery L Medium Italic'" /></flowRegion><flowPara
         id="flowPara3385" /></flowRoot>    <flowRoot
       xml:space="preserve"
       id="flowRoot3397"
       style="font-style:italic;font-variant:normal;font-weight:500;font-stretch:normal;font-size:40px;line-height:125%;font-family:'URW Chancery L';-inkscape-font-specification:'URW Chancery L Medium Italic';letter-spacing:0px;word-spacing:0px;fill:#000000;fill-opacity:1;stroke:none;stroke-width:1px;stroke-linecap:butt;stroke-linejoin:miter;stroke-opacity:1"><flowRegion
         id="flowRegion3399"><rect
           id="rect3401"
           width="283.34778"
           height="102.53048"
           x="33.840111"
           y="-114.9789"
           style="font-style:italic;font-variant:normal;font-weight:500;font-stretch:normal;font-family:'URW Chancery L';-inkscape-font-specification:'URW Chancery L Medium Italic'" /></flowRegion><flowPara
         id="flowPara3403" /></flowRoot>    <flowRoot
       xml:space="preserve"
       id="flowRoot3423"
       style="font-style:italic;font-variant:normal;font-weight:500;font-stretch:normal;font-size:40px;line-height:125%;font-family:'URW Chancery L';-inkscape-font-specification:'URW Chancery L Medium Italic';letter-spacing:0px;word-spacing:0px;fill:#000000;fill-opacity:1;stroke:none;stroke-width:1px;stroke-linecap:butt;stroke-linejoin:miter;stroke-opacity:1"><flowRegion
         id="flowRegion3425"><rect
           id="rect3427"
           width="159.09903"
           height="61.114227"
           x="-17.67767"
           y="-108.41291"
           style="font-style:italic;font-variant:normal;font-weight:500;font-stretch:normal;font-family:'URW Chancery L';-inkscape-font-specification:'URW Chancery L Medium Italic'" /></flowRegion><flowPara
         id="flowPara3429" /></flowRoot>    <flowRoot
       xml:space="preserve"
       id="flowRoot3509"
       style="font-style:normal;font-weight:normal;font-size:40px;line-height:125%;font-family:sans-serif;letter-spacing:0px;word-spacing:0px;fill:#000000;fill-opacity:1;stroke:none;stroke-width:1px;stroke-linecap:butt;stroke-linejoin:miter;stroke-opacity:1"><flowRegion
         id="flowRegion3511"><rect
           id="rect3513"
           width="259.10413"
           height="129.29953"
           x="-238.90108"
           y="10.785089" /></flowRegion><flowPara
         id="flowPara3515" /></flowRoot>    <flowRoot
       xml:space="preserve"
       id="flowRoot3517"
       style="font-style:italic;font-variant:normal;font-weight:normal;font-stretch:normal;font-size:40px;line-height:125%;font-family:sans-serif;-inkscape-font-specification:'sans-serif Italic';letter-spacing:0px;word-spacing:0px;fill:#000000;fill-opacity:1;stroke:none;stroke-width:1px;stroke-linecap:butt;stroke-linejoin:miter;stroke-opacity:1"><flowRegion
         id="flowRegion3519"><rect
           id="rect3521"
           width="323.24881"
           height="66.164993"
           x="-231.83"
           y="140.58969"
           style="font-style:italic;font-variant:normal;font-weight:normal;font-stretch:normal;font-family:sans-serif;-inkscape-font-specification:'sans-serif Italic'" /></flowRegion><flowPara
         id="flowPara3523" /></flowRoot>    <g
       transform="scale(1.222077,0.81827905)"
       style="font-style:normal;font-variant:normal;font-weight:600;font-stretch:normal;font-size:27.5px;line-height:125%;font-family:'URW Gothic L';-inkscape-font-specification:'URW Gothic L Semi-Bold';text-align:end;letter-spacing:0px;word-spacing:0px;text-anchor:end;fill:#2b0000;fill-opacity:1;stroke:none;stroke-width:1px;stroke-linecap:butt;stroke-linejoin:miter;stroke-opacity:1"
       id="text3525-2" />
    <g
       transform="scale(1.222077,0.81827905)"
       style="font-style:normal;font-variant:normal;font-weight:normal;font-stretch:normal;font-size:27.5px;line-height:125%;font-family:'URW Gothic L';-inkscape-font-specification:'URW Gothic L';text-align:end;letter-spacing:0px;word-spacing:0px;text-anchor:end;fill:#ffffff;fill-opacity:1;stroke:none;stroke-width:1px;stroke-linecap:butt;stroke-linejoin:miter;stroke-opacity:1"
       id="text3525-2-5">
      <path
         d="m 548.12742,369.34481 c -5.83,0 -10.7525,4.7575 -10.7525,10.395 0,5.9125 4.785,10.6425 10.7525,10.6425 5.885,0 10.725,-4.7575 10.725,-10.505 0,-5.8025 -4.84,-10.5325 -10.725,-10.5325 z m 0,1.87 c 4.73,0 8.6625,3.9325 8.6625,8.69 0,4.7025 -3.9325,8.6075 -8.6625,8.6075 -4.785,0 -8.69,-3.905 -8.69,-8.7175 0,-4.6475 3.9875,-8.58 8.69,-8.58 z"
         style="font-style:normal;font-variant:normal;font-weight:normal;font-stretch:normal;font-size:27.5px;font-family:'URW Gothic L';-inkscape-font-specification:'URW Gothic L';fill:#ffffff"
         id="path3616" />
      <path
         d="m 561.79878,374.98231 0,20.3225 2.035,0 0,-7.865 c 1.32,1.925 3.355,2.9425 5.8575,2.9425 4.4825,0 7.975,-3.4375 7.975,-7.8375 0,-4.4825 -3.4375,-7.92 -7.92,-7.92 -2.5575,0 -4.6475,1.045 -5.9125,2.9425 l 0,-2.585 -2.035,0 z m 7.865,1.5125 c 3.3825,0 5.94,2.585 5.94,6.05 0,3.3825 -2.5575,5.9675 -5.9125,5.9675 -3.4375,0 -5.995,-2.6125 -5.995,-6.0775 0,-3.3275 2.64,-5.94 5.9675,-5.94 z"
         style="font-style:normal;font-variant:normal;font-weight:normal;font-stretch:normal;font-size:27.5px;font-family:'URW Gothic L';-inkscape-font-specification:'URW Gothic L';fill:#ffffff"
         id="path3618" />
      <path
         d="m 595.6139,383.17731 c 0,-2.0625 -0.275,-3.3275 -1.0175,-4.6475 -1.3475,-2.3925 -3.96,-3.905 -6.82,-3.905 -4.3725,0 -7.81,3.4375 -7.81,7.81 0,4.455 3.4925,7.9475 7.9475,7.9475 1.925,0 3.74,-0.715 5.115,-2.0075 1.0725,-1.0175 1.7875,-2.0625 2.2,-3.3 l -2.1175,0 c -0.8525,2.0625 -2.97,3.4375 -5.2525,3.4375 -3.08,0 -5.6925,-2.365 -5.8575,-5.335 l 13.6125,0 z m -13.5575,-1.8425 c 0.55,-2.8875 2.8325,-4.84 5.6925,-4.84 2.915,0 5.1425,1.8425 5.83,4.84 l -11.5225,0 z"
         style="font-style:normal;font-variant:normal;font-weight:normal;font-stretch:normal;font-size:27.5px;font-family:'URW Gothic L';-inkscape-font-specification:'URW Gothic L';fill:#ffffff"
         id="path3620" />
      <path
         d="m 598.42964,390.02481 2.035,0 0,-8.2775 c 0,-1.6775 0.22,-2.5575 0.7975,-3.41 0.7975,-1.155 2.2,-1.8425 3.795,-1.8425 1.485,0 2.8325,0.605 3.6575,1.6225 0.715,0.935 0.99,2.035 0.99,4.015 l 0,7.8925 2.035,0 0,-7.8925 c 0,-2.53 -0.3575,-3.8775 -1.32,-5.17 -1.1825,-1.485 -2.9975,-2.3375 -5.115,-2.3375 -1.98,0 -3.575,0.77 -4.84,2.31 l 0,-1.9525 -2.035,0 0,15.0425 z"
         style="font-style:normal;font-variant:normal;font-weight:normal;font-stretch:normal;font-size:27.5px;font-family:'URW Gothic L';-inkscape-font-specification:'URW Gothic L';fill:#ffffff"
         id="path3622" />
    </g>
    <path
       inkscape:connector-curvature="0"
       id="path238-7"
       style="opacity:1;fill:url(#linearGradient6702);fill-opacity:1.0;fill-rule:nonzero;stroke:none"
       d="m 767.00063,332.54267 -3.89453,4.07617 c 4.86078,14.0697 7.20607,26.07132 6.6914,30.07227 -0.2798,2.17714 -1.68427,3.08596 -2.25,3.35351 -0.90475,0.42685 -1.27685,1.68092 0.14258,2.09961 3.46025,1.01808 5.90062,-1.36859 7.08399,-4.16211 1.67983,0.8709 3.7912,1.39453 6.08593,1.39453 5.41075,0 9.91407,-2.92513 9.91407,-6.43554 0,-3.71295 -4.33684,-6.61524 -9.94922,-6.61524 -2.27317,0 -4.36857,0.52385 -6.04102,1.39258 -1.16393,-6.19052 -3.66393,-15.16725 -7.7832,-25.17578 z M 780.86,359.07001 c 2.99104,0 5.41016,1.711 5.41016,3.78125 0,2.09274 -2.41952,3.78125 -5.37695,3.78125 -2.77487,0 -5.00682,-1.4233 -5.35742,-3.30859 -0.0112,-0.20601 -0.0267,-0.42522 -0.0449,-0.65039 0.10415,-1.98684 2.50933,-3.60352 5.36911,-3.60352 z m 75.6651,10.0145 4.46975,0 0,-6.32325 c 0,-1.23765 0.16803,-1.93523 0.63853,-2.4978 0.63854,-0.76509 1.81479,-1.19264 3.2935,-1.19264 2.62135,0 3.62957,1.03512 3.62957,3.64543 l 0,6.36826 4.46974,0 0,-7.04334 c 0,-1.82272 -0.33607,-2.83534 -1.24346,-3.75795 -1.24346,-1.28265 -3.39432,-1.98023 -6.04928,-1.98023 -1.91561,0 -3.39432,0.36004 -4.7386,1.17014 l 0,-5.0181 -4.46975,0 0,16.62948 z m -8.18754,-4.09549 c -1.10903,1.14764 -2.3861,1.6427 -4.23449,1.6427 -3.09186,0 -5.41075,-1.6202 -5.41075,-3.80296 0,-2.18275 2.21807,-3.75794 5.30992,-3.75794 2.01643,0 3.42793,0.56257 4.33532,1.7102 l 5.04107,0 c -0.63854,-1.26015 -1.24346,-1.91273 -2.52053,-2.70032 -1.81479,-1.12513 -4.26811,-1.75521 -6.85586,-1.75521 -5.51156,0 -9.81327,2.85784 -9.81327,6.52578 0,3.62293 4.43614,6.52577 9.9477,6.52577 4.33532,0 7.69603,-1.59769 9.24196,-4.38802 l -5.04107,0 z m -33.49316,4.09549 4.46975,0 0,-5.8732 c 0,-1.6652 0.16804,-2.38528 0.73936,-2.99286 0.70575,-0.74258 1.882,-1.14763 3.29349,-1.14763 1.14265,0 2.08365,0.27003 2.68857,0.78759 0.60493,0.54007 0.87379,1.46268 0.87379,3.12787 l 0,6.09823 4.46975,0 0,-6.6833 c 0,-2.22776 -0.33608,-3.30789 -1.34429,-4.2755 -1.20986,-1.17014 -3.22628,-1.80022 -5.81403,-1.80022 -2.11725,0 -3.59596,0.42755 -5.24271,1.48518 l 0,-1.19264 -4.13368,0 0,12.46648 z m -3.07925,-4.90558 c 0.13443,-0.42756 0.16803,-0.69759 0.16803,-1.14764 0,-3.87046 -4.06646,-6.7058 -9.61163,-6.7058 -5.47796,0 -9.81328,2.90285 -9.81328,6.57078 0,3.64544 4.40253,6.48077 10.08214,6.48077 3.05824,0 5.44435,-0.74259 7.39356,-2.25026 0.70575,-0.58507 1.17625,-1.10264 1.47871,-1.73271 l -4.87303,0 c -1.14264,0.90011 -2.25167,1.23765 -4.10007,1.23765 -2.65496,0 -4.60417,-0.94512 -5.14189,-2.45279 l 14.41746,0 z m -14.55188,-2.63282 c 0.70575,-1.59769 2.52053,-2.47529 5.17549,-2.47529 2.75579,0 4.57057,0.8776 5.14189,2.47529 l -10.31738,0 z m -48.86499,-17.18899 c -6.4559,7.53616 -12.05338,15.95881 -15.10742,23.92188 l 26.69532,0 c 0.96887,-0.0202 1.75,-0.80747 1.75,-1.7832 0,-0.98442 -0.80066,-1.78711 -1.78711,-1.78711 l -16.89649,0 c 0.98645,-2.11382 2.19243,-4.36393 3.64453,-6.76368 l 13.25196,0 c 0.98645,0 1.78711,-0.80269 1.78711,-1.78711 0,-0.99054 -0.80066,-1.7871 -1.78711,-1.7871 l -10.97462,0 c 1.36837,-2.04643 2.90304,-4.18897 4.63086,-6.43555 l 6.34376,0 c 0.98645,0 1.78711,-0.79657 1.78711,-1.78711 0,-0.98849 -0.80066,-1.78711 -1.78711,-1.78711 l -3.50977,0 c 10e-4,-0.001 0.003,-0.002 0.004,-0.004 l -8.04493,0 z" />
  </g>
</svg>
