<?xml version="1.0" encoding="UTF-8" standalone="no"?>
<!-- Created with Inkscape (http://www.inkscape.org/) -->

<svg
   xmlns:osb="http://www.openswatchbook.org/uri/2009/osb"
   xmlns:dc="http://purl.org/dc/elements/1.1/"
   xmlns:cc="http://creativecommons.org/ns#"
   xmlns:rdf="http://www.w3.org/1999/02/22-rdf-syntax-ns#"
   xmlns:svg="http://www.w3.org/2000/svg"
   xmlns="http://www.w3.org/2000/svg"
   xmlns:xlink="http://www.w3.org/1999/xlink"
   xmlns:sodipodi="http://sodipodi.sourceforge.net/DTD/sodipodi-0.dtd"
   xmlns:inkscape="http://www.inkscape.org/namespaces/inkscape"
   width="216.20702"
   height="119.12486"
   id="svg3873"
   version="1.1"
   inkscape:version="0.91 r13725"
   sodipodi:docname="ELIXIR_Dna_white2_copy.svg"
   inkscape:export-filename="/home/jmfernandez/docs/Logos/ELIXIR-Spain.png"
   inkscape:export-xdpi="300"
   inkscape:export-ydpi="300">
  <defs
     id="defs3875">
    <linearGradient
       id="linearGradient5683"
       osb:paint="solid">
      <stop
         style="stop-color:#000000;stop-opacity:1;"
         offset="0"
         id="stop5685" />
    </linearGradient>
    <linearGradient
       id="linearGradient4237"
       osb:paint="solid">
      <stop
         style="stop-color:#000000;stop-opacity:1;"
         offset="0"
         id="stop4239" />
    </linearGradient>
    <linearGradient
       id="linearGradient5675"
       osb:paint="solid">
      <stop
         style="stop-color:#000000;stop-opacity:1;"
         offset="0"
         id="stop5677" />
    </linearGradient>
    <linearGradient
       id="linearGradient5667"
       osb:paint="solid">
      <stop
         style="stop-color:#000000;stop-opacity:1;"
         offset="0"
         id="stop5669" />
    </linearGradient>
    <linearGradient
       id="linearGradient6326"
       osb:paint="solid">
      <stop
         style="stop-color:#000000;stop-opacity:1;"
         offset="0"
         id="stop6328" />
    </linearGradient>
    <linearGradient
       id="linearGradient6142"
       osb:paint="solid">
      <stop
         style="stop-color:#98bac1;stop-opacity:1;"
         offset="0"
         id="stop6144" />
    </linearGradient>
    <linearGradient
       id="linearGradient5686"
       osb:paint="solid">
      <stop
         style="stop-color:#28170b;stop-opacity:1;"
         offset="0"
         id="stop5688" />
    </linearGradient>
    <linearGradient
       id="linearGradient6455"
       osb:paint="solid">
      <stop
         style="stop-color:#f46b17;stop-opacity:1;"
         offset="0"
         id="stop6457" />
    </linearGradient>
    <linearGradient
       inkscape:collect="always"
       xlink:href="#linearGradient5683"
       id="linearGradient5687"
       x1="76.527344"
       y1="74.892967"
       x2="216.20703"
       y2="74.892967"
       gradientUnits="userSpaceOnUse" />
  </defs>
  <sodipodi:namedview
     id="base"
     pagecolor="#ffffff"
     bordercolor="#666666"
     borderopacity="1.0"
     inkscape:pageopacity="0.0"
     inkscape:pageshadow="2"
     inkscape:zoom="15.999999"
     inkscape:cx="193.72939"
     inkscape:cy="45.703177"
     inkscape:document-units="px"
     inkscape:current-layer="g3399"
     showgrid="false"
     fit-margin-top="0"
     fit-margin-left="0"
     fit-margin-right="0"
     fit-margin-bottom="0"
     inkscape:window-width="1920"
     inkscape:window-height="1031"
     inkscape:window-x="0"
     inkscape:window-y="27"
     inkscape:window-maximized="1" />
  <metadata
     id="metadata3878">
    <rdf:RDF>
      <cc:Work
         rdf:about="">
        <dc:format>image/svg+xml</dc:format>
        <dc:type
           rdf:resource="http://purl.org/dc/dcmitype/StillImage" />
        <dc:title />
      </cc:Work>
    </rdf:RDF>
  </metadata>
  <g
     inkscape:label="Layer 1"
     inkscape:groupmode="layer"
     id="layer1"
     transform="translate(-656.71353,-277.57001)">
    <g
       id="g3399"
       style="opacity:1;fill:#f46b17;fill-opacity:1;fill-rule:nonzero;stroke:none;stroke-opacity:1"
       inkscape:transform-center-x="49.497475"
       inkscape:transform-center-y="21.213196">
      <path
         id="path5594"
         d="m 110.28711,54.972656 -3.89453,4.076172 c 4.86078,14.0697 7.20607,26.071316 6.6914,30.072266 -0.2798,2.17714 -1.68427,3.085965 -2.25,3.353515 -0.90475,0.42685 -1.27685,1.68092 0.14258,2.09961 3.32072,0.977025 5.68931,-1.18733 6.92188,-3.832031 l 4.0039,0 c 1.78667,0 3.30722,-0.195395 4.56055,-0.583985 1.28,-0.38858 2.21412,-0.913302 2.80078,-1.576172 0.61333,-0.66288 1.0393,-1.315058 1.2793,-1.955078 0.24,-0.64002 0.35937,-1.314847 0.35937,-2.023437 0,-1.53147 -0.4651,-2.844227 -1.39843,-3.941407 -0.93333,-1.09717 -2.26667,-1.817286 -4,-2.160156 l 0.0801,-0.308594 c 1.52,-0.38859 2.25093,-1.340878 2.76824,-2.456341 0,0 0.64441,-1.759424 0.53313,-2.985793 -0.16441,-1.811795 -0.44571,-2.450497 -1.51387,-3.701593 -1.30666,-1.09717 -2.48247,-2.309398 -5.46914,-2.309398 l -7.59375,0 c -1.29163,-4.387665 -2.71036,-8.581964 -4.02148,-11.767578 z m 89.59961,11.767578 0,24.001954 4.2793,0 0,-9.085938 c 0,-1.965773 0.4938,-3.451285 1.48046,-4.457031 1.01334,-1.0286 2.34667,-1.542969 4,-1.542969 0.98668,0 1.61225,0.273679 1.87891,0.822266 0.26667,0.525733 0.40039,1.45159 0.40039,2.777343 l 0,11.486329 4.28125,0 0,-12.378907 c 0,-1.668626 -0.41357,-3.028618 -1.24023,-4.080078 -0.8,-1.05146 -2.06745,-1.576172 -3.80078,-1.576172 -1.33334,0 -2.69342,0.25104 -4.08008,0.753907 -1.38668,0.48002 -2.31883,1.235065 -2.79883,2.263671 l -0.12109,-0.138671 0,-8.845704 z m -108.251954,0.04687 c -6.4559,7.53616 -12.053382,15.958805 -15.107422,23.921875 l 26.695316,0 c 0.96887,-0.0202 1.75,-0.807473 1.75,-1.783203 0,-0.98442 -0.80066,-1.787109 -1.78711,-1.787109 l -16.896488,0 c 0.98645,-2.11382 2.192432,-4.363922 3.644532,-6.763672 l 13.251956,0 c 0.98645,0 1.78711,-0.802689 1.78711,-1.787109 0,-0.99054 -0.80066,-1.78711 -1.78711,-1.78711 l -10.974612,0 c 1.36837,-2.04643 2.903039,-4.188967 4.630859,-6.435547 l 6.343753,0 c 0.98645,0 1.78711,-0.796569 1.78711,-1.787109 0,-0.98849 -0.80066,-1.787109 -1.78711,-1.787109 l -3.509769,0 c 0.001,-10e-4 0.0029,-0.0019 0.0039,-0.0039 z m 23.658204,3.382813 4.65039,0 c 2.08,0 2.92206,0.251036 3.77539,0.753906 0.85333,0.48001 2.01002,3.27161 0.0293,4.734375 0,0 -0.79505,0.992188 -2.51172,0.992188 l -4.35742,0 c -0.45643,-2.105177 -0.99636,-4.294053 -1.58594,-6.480469 z m 28.27148,2.537109 c -2.77333,0 -4.89271,0.800338 -6.35937,2.400391 -1.44,1.577187 -2.16016,3.725232 -2.16016,6.445312 0,2.697227 0.83953,4.93779 2.51953,6.720704 1.68,1.760053 3.87961,2.638671 6.59961,2.638671 0.98667,0 1.87969,-0.09057 2.67969,-0.273437 0.82667,-0.182867 1.52008,-0.456546 2.08008,-0.822266 0.56,-0.388586 1.02706,-0.742486 1.40039,-1.0625 0.4,-0.32 0.74767,-0.743798 1.04101,-1.269531 0.32,-0.548587 0.51961,-0.925139 0.59961,-1.130859 0.10667,-0.20572 0.25279,-0.536981 0.43946,-0.994141 l -4.11914,0 c -0.42667,1.7372 -1.69412,2.605469 -3.80078,2.605469 -1.44,0 -2.57373,-0.411489 -3.4004,-1.234375 -0.8,-0.82288 -1.24031,-1.909199 -1.32031,-3.257813 l -0.0801,-1.267578 12.76172,0 c 0,-0.777167 -0.0144,-1.394402 -0.041,-1.851562 0,-0.457154 -0.0659,-1.064046 -0.19922,-1.81836 -0.10667,-0.754306 -0.26714,-1.359246 -0.48047,-1.816406 -0.21334,-0.457147 -0.54667,-0.971515 -1,-1.542969 -0.42667,-0.57144 -0.94721,-1.017877 -1.56055,-1.33789 -0.61333,-0.320014 -1.39937,-0.583343 -2.35937,-0.789063 -0.93334,-0.228573 -2.01357,-0.341797 -3.24023,-0.341797 z m 23.13477,0 c -2,0 -3.72016,0.948503 -5.16016,2.845703 l 0,-2.673828 -4.20117,0 0,17.863282 4.28125,0 0,-9.498047 c 0,-1.85148 0.43837,-3.246421 1.31836,-4.183594 0.88,-0.937173 1.87999,-1.404297 3,-1.404297 1.2,0 1.988,0.376553 2.36133,1.130859 0.4,0.754307 0.59961,1.885912 0.59961,3.394532 l 0,10.560547 4.27929,0 0,-11.623047 c 0,-2.46864 -0.47945,-4.149556 -1.43945,-5.041016 -0.93333,-0.914313 -2.61239,-1.371094 -5.03906,-1.371094 z m 20.37305,0 c -2.82667,0 -5.07977,0.868269 -6.75977,2.605469 -1.65333,1.714333 -2.48047,3.954903 -2.48047,6.720703 0,2.651507 0.78604,4.799546 2.35938,6.445313 1.57333,1.622906 3.76054,2.433593 6.56054,2.433593 l 0,0.002 c 2.50666,0 4.49427,-0.561607 5.96094,-1.68164 1.46667,-1.120033 2.38643,-2.65083 2.75977,-4.59375 l -4.16016,-0.06836 c -0.18666,0.891461 -0.68046,1.679502 -1.48047,2.365235 -0.77333,0.68574 -1.6931,1.029297 -2.75976,1.029297 -0.90667,0 -1.70706,-0.205741 -2.40039,-0.617188 -0.66667,-0.41144 -1.17287,-0.948455 -1.51954,-1.611328 -0.34666,-0.66288 -0.61411,-1.35 -0.80078,-2.058594 -0.15999,-0.708593 -0.23828,-1.428709 -0.23828,-2.160156 0,-1.577193 0.42597,-2.947528 1.2793,-4.113281 0.85333,-1.165747 2.13318,-1.748047 3.83984,-1.748047 1.12,0 2.03977,0.308621 2.75977,0.925781 0.72,0.61716 1.14595,1.347613 1.27929,2.19336 l 4.08008,0 c -0.32,-1.851494 -1.19867,-3.324702 -2.63867,-4.421875 -1.41333,-1.097174 -3.29396,-1.646485 -5.64062,-1.646485 z m -42.70704,2.949219 c 2.37334,0 3.63883,1.199536 3.79883,3.599609 l -8.19922,0 c 0.13334,-1.394326 0.58605,-2.342823 1.35938,-2.845703 0.77333,-0.502866 1.78768,-0.753906 3.04101,-0.753906 z m -26.80859,4.421875 3.22656,0 c 1.68,0 2.999,0.263332 3.95899,0.789063 0.96,0.50288 1.4414,1.406094 1.4414,2.708984 0,2.4915 -1.89301,3.736328 -5.67968,3.736328 l -2.13282,0 c -0.0211,-1.983115 -0.32041,-4.4739 -0.81445,-7.234375 z"
         style="font-style:normal;font-variant:normal;font-weight:bold;font-stretch:normal;font-size:medium;line-height:483.99991989%;font-family:Garuda;-inkscape-font-specification:'Garuda Bold';letter-spacing:0.14999999px;word-spacing:0px;fill:#f46b17;fill-opacity:1;fill-rule:evenodd;stroke:url(#linearGradient5687);stroke-width:0;stroke-linecap:round;stroke-linejoin:round;stroke-miterlimit:0.30000001;stroke-dasharray:none;stroke-dashoffset:0"
         inkscape:connector-curvature="0"
         transform="translate(656.71352,277.57001)"
         sodipodi:nodetypes="ccccccsccssscccscsccccccscscsccscsccccccccssccsssccsssccccscssccscscscccccccsccccccccscsscccccssscsccscsccscccscccscccsssscccccscccscscsscc" />
      <path
         style="opacity:1;fill:#f46b17;fill-opacity:1;fill-rule:evenodd;stroke-width:0;stroke-linecap:butt;stroke-linejoin:round;stroke-miterlimit:0.30000001;stroke-dasharray:none;stroke-dashoffset:0"
         d="m 76.871261,90.141758 c 0.08788,-0.309375 1.014662,-2.296295 2.059515,-4.415377 2.172815,-4.406716 6.529124,-11.104455 10.217773,-15.709624 l 2.453002,-3.0625 6.158065,0 c 5.648334,0 6.192314,0.03784 6.571814,0.457185 0.54613,0.603471 0.52728,1.862573 -0.0355,2.371895 -0.3623,0.327875 -1.14424,0.420059 -4.03969,0.476246 l -3.590437,0.06967 -2.21031,3.082282 c -1.21567,1.695256 -2.21031,3.185881 -2.21031,3.312501 0,0.133716 2.44642,0.230217 5.836254,0.230217 5.336573,0 5.871673,0.03914 6.250003,0.457186 0.54916,0.606821 0.52622,1.863533 -0.0434,2.379067 -0.40235,0.364117 -1.2945,0.413937 -7.437502,0.415328 l -6.980315,0.0016 -0.46997,0.810919 c -0.901566,1.555624 -3.15503,5.855389 -3.15503,6.020016 0,0.09125 3.9375,0.165904 8.75,0.165904 8.416667,0 8.769047,0.01905 9.249997,0.5 0.5013,0.501301 0.6571,1.615891 0.30359,2.17186 -0.48094,0.75637 -1.75591,0.82814 -14.711709,0.82814 l -13.125572,0 0.159782,-0.5625 z"
         id="path4814"
         inkscape:connector-curvature="0"
         transform="translate(656.71353,277.57001)" />
      <path
         style="opacity:1;fill:#f46b17;fill-opacity:1;fill-rule:evenodd;stroke-width:0;stroke-linecap:butt;stroke-linejoin:round;stroke-miterlimit:0.30000001;stroke-dasharray:none;stroke-dashoffset:0"
         d="m 76.875839,90.141758 c 0.0904,-0.309375 0.930344,-2.1375 1.866548,-4.0625 2.624732,-5.396915 6.230746,-10.904464 11.089663,-16.937501 l 1.76178,-2.1875 6.161925,0 c 5.652075,0 6.196155,0.03783 6.575675,0.457185 0.54916,0.606822 0.52622,1.863534 -0.0434,2.379068 -0.3798,0.343711 -1.05234,0.413747 -3.97309,0.413747 l -3.515901,0 -2.149788,2.974017 c -1.182384,1.635709 -2.219031,3.154459 -2.30366,3.375 -0.138511,0.360953 0.431432,0.400983 5.709129,0.400983 5.36248,0 5.89832,0.03903 6.27675,0.457186 0.54916,0.606821 0.52622,1.863533 -0.0434,2.379067 -0.40247,0.364233 -1.29381,0.413747 -7.44804,0.413747 l -6.990854,0 -1.665165,3.062501 c -0.915841,1.684375 -1.73876,3.259375 -1.828709,3.5 -0.153811,0.411464 0.358762,0.4375 8.613204,0.4375 8.443414,0 8.795734,0.01899 9.276744,0.5 0.5013,0.501301 0.6571,1.615891 0.30359,2.17186 -0.48094,0.75637 -1.75591,0.82814 -14.711709,0.82814 l -13.125572,0 0.16436,-0.5625 z"
         id="path4816"
         inkscape:connector-curvature="0"
         transform="translate(656.71353,277.57001)" />
      <path
         style="opacity:1;fill:#f46b17;fill-opacity:1;fill-rule:evenodd;stroke-width:0;stroke-linecap:butt;stroke-linejoin:round;stroke-miterlimit:0.30000001;stroke-dasharray:none;stroke-dashoffset:0"
         d="m 76.881125,90.141758 c 0.37329,-1.237732 3.115842,-6.715572 4.599841,-9.1875 2.030956,-3.383006 5.016274,-7.641771 7.842239,-11.187501 l 2.241577,-2.8125 6.176449,0 c 5.666149,0 6.210629,0.03777 6.590199,0.457185 0.54916,0.606822 0.52622,1.863534 -0.0434,2.379068 -0.37948,0.343421 -1.05063,0.413747 -3.94857,0.413747 l -3.491374,0 -1.511611,2.0625 c -2.310681,3.152782 -3.086579,4.35885 -2.914727,4.530702 0.08624,0.08624 2.708113,0.156798 5.826385,0.156798 5.175107,0 5.705677,0.03987 6.083337,0.457186 0.54916,0.606821 0.52622,1.863533 -0.0434,2.379067 -0.40238,0.364147 -1.29399,0.413869 -7.437502,0.414758 l -6.980315,0.001 -1.799108,3.29453 c -0.989509,1.811992 -1.742245,3.386538 -1.672746,3.49899 0.0695,0.112452 4.000973,0.204458 8.736609,0.204458 8.276912,0 8.629602,0.01936 9.110242,0.5 0.5013,0.501301 0.6571,1.615891 0.30359,2.17186 -0.48094,0.75637 -1.75591,0.82814 -14.711709,0.82814 l -13.125572,0 0.169646,-0.5625 z"
         id="path4818"
         inkscape:connector-curvature="0"
         transform="translate(656.71353,277.57001)" />
      <path
         style="opacity:1;fill:#f46b17;fill-opacity:1;fill-rule:evenodd;stroke-width:0;stroke-linecap:butt;stroke-linejoin:round;stroke-miterlimit:0.30000001;stroke-dasharray:none;stroke-dashoffset:0"
         d="m 142.46569,90.764061 c -1.80795,-0.291441 -3.33753,-1.040599 -4.5853,-2.245801 -1.66974,-1.612771 -2.56229,-3.571364 -2.76883,-6.075838 -0.12551,-1.521996 0.0802,-3.321088 0.52375,-4.581388 0.93273,-2.650003 2.86007,-4.343511 5.58038,-4.903345 1.22976,-0.253083 3.23302,-0.283125 4.61862,-0.06926 1.38754,0.214158 2.81867,0.673436 3.64222,1.168853 0.69584,0.418589 1.67783,1.589761 2.1659,2.583157 0.42428,0.863553 0.69132,2.389385 0.76295,4.359376 l 0.0426,1.171875 -6.39021,0 -6.39021,0 0.0448,0.844751 c 0.0584,1.10224 0.21759,1.861324 0.52297,2.493971 0.59417,1.230939 1.41035,1.917554 2.73039,2.296946 0.42862,0.12319 0.64276,0.143669 1.5,0.143454 0.75881,-1.88e-4 1.09689,-0.02672 1.40173,-0.10999 1.19,-0.32506 1.99181,-1.061165 2.34575,-2.153507 l 0.10631,-0.328125 2.02298,0 2.02297,0 -0.0702,0.203125 c -0.13789,0.3991 -0.98056,1.992377 -1.26338,2.388714 -0.31853,0.446376 -0.68042,0.778096 -1.5858,1.453578 -0.92536,0.690387 -1.66641,1.013241 -2.92169,1.272897 -0.83328,0.172366 -3.21174,0.223092 -4.0587,0.08656 z m 5.69307,-11.837019 c -0.0605,-0.534962 -0.26685,-1.23164 -0.48721,-1.645064 -0.64797,-1.215734 -2.13248,-1.811154 -4.01836,-1.611726 -1.94372,0.205545 -2.96881,0.873425 -3.43235,2.23628 -0.11812,0.347292 -0.2864,1.143597 -0.2864,1.35525 0,0.0192 1.85988,0.0349 4.13307,0.0349 l 4.13307,0 -0.0418,-0.369643 z"
         id="path4828"
         inkscape:connector-curvature="0"
         transform="translate(656.71353,277.57001)" />
      <path
         style="opacity:1;fill:#000000;fill-opacity:1;fill-rule:evenodd;stroke-width:0;stroke-linecap:butt;stroke-linejoin:round;stroke-miterlimit:0.30000001;stroke-dasharray:none;stroke-dashoffset:0"
         d="m 142.46569,90.763814 c -1.14063,-0.183368 -2.2125,-0.562481 -3.10228,-1.097256 -0.72632,-0.436528 -1.09596,-0.736659 -1.75568,-1.425548 -1.52186,-1.589138 -2.3035,-3.413519 -2.49743,-5.829124 -0.15794,-1.967348 0.18281,-4.015894 0.91323,-5.490201 0.3355,-0.677179 0.49449,-0.925909 0.96838,-1.514983 1.08515,-1.348925 2.72506,-2.225448 4.78628,-2.558246 0.66078,-0.106687 3.07478,-0.107242 3.8125,-8.76e-4 1.91049,0.275459 3.50815,0.846796 4.35509,1.557417 0.59741,0.501264 1.3736,1.5297 1.7343,2.297938 0.3906,0.831909 0.6582,2.411925 0.72774,4.296876 l 0.0432,1.171875 -6.38331,0 -6.38331,0 5.3e-4,0.296875 c 0.001,0.596201 0.12576,1.688364 0.24819,2.173917 0.21126,0.83789 0.56785,1.476266 1.15066,2.059927 0.57789,0.578741 1.11819,0.894103 1.89434,1.105683 0.65905,0.17966 2.27678,0.194853 2.88878,0.02713 0.56454,-0.154714 1.09345,-0.436856 1.45808,-0.7778 0.40931,-0.382727 0.6163,-0.692744 0.83134,-1.245109 l 0.1764,-0.453125 2.01868,0 2.01868,0 -0.12833,0.328125 c -0.2056,0.525734 -0.91184,1.846006 -1.21386,2.269252 -0.402,0.563355 -1.5488,1.519308 -2.42184,2.018813 -0.43587,0.249381 -1.49199,0.600558 -2.2029,0.732499 -0.78724,0.146109 -3.16636,0.179908 -3.9375,0.05594 l 0,0 z m 5.69025,-11.826504 c -0.28369,-2.376774 -1.81578,-3.497033 -4.46294,-3.263295 -1.70803,0.150815 -2.78002,0.746846 -3.29551,1.832317 -0.21566,0.45412 -0.50335,1.612092 -0.43,1.730778 0.0227,0.03679 1.60408,0.05957 4.13409,0.05957 l 4.09726,0 -0.0429,-0.359375 z"
         id="path4830"
         inkscape:connector-curvature="0"
         transform="translate(656.71353,277.57001)" />
      <path
         style="opacity:1;fill:#000000;fill-opacity:1;fill-rule:evenodd;stroke-width:0;stroke-linecap:butt;stroke-linejoin:round;stroke-miterlimit:0.30000001;stroke-dasharray:none;stroke-dashoffset:0"
         d="m 142.62194,90.756196 c -1.38054,-0.207342 -2.57889,-0.662203 -3.67344,-1.394334 -0.68274,-0.456676 -1.77041,-1.566163 -2.27292,-2.318514 -1.08315,-1.621683 -1.55135,-3.308883 -1.55135,-5.590412 0,-2.384881 0.58252,-4.32742 1.75115,-5.839512 1.07123,-1.386077 2.49432,-2.230678 4.49656,-2.668697 0.75732,-0.165676 3.80636,-0.167997 4.67355,-0.0036 1.38772,0.263143 2.58116,0.660607 3.34895,1.115337 1.04947,0.621558 2.21473,2.21257 2.53469,3.46079 0.25152,0.981213 0.39038,2.122854 0.473,3.888765 l 0.0358,0.765625 -6.38639,0 -6.3864,0 0.04,0.828125 c 0.0448,0.927995 0.19985,1.764468 0.43314,2.336235 0.48196,1.181197 1.61879,2.177385 2.85869,2.505013 0.31261,0.0826 0.66556,0.107191 1.53125,0.10667 1.01079,-6.25e-4 1.16624,-0.01518 1.53125,-0.143569 1.12773,-0.396664 1.72416,-0.992664 2.2122,-2.210599 l 0.0939,-0.234375 1.97194,0 c 1.599,0 1.97194,0.01572 1.97194,0.08311 0,0.137321 -0.89259,1.863765 -1.21194,2.344142 -0.4723,0.710439 -1.81726,1.832402 -2.70914,2.259958 -0.5927,0.284131 -1.73399,0.607837 -2.40804,0.682999 -0.55492,0.06188 -2.99517,0.08135 -3.35838,0.0268 z m 5.55208,-11.841374 c -0.14204,-1.038666 -0.47961,-1.785752 -1.05477,-2.334364 -0.98958,-0.943897 -2.75751,-1.219405 -4.60976,-0.718371 -0.96701,0.261576 -1.74367,0.839952 -2.09428,1.559598 -0.20549,0.421768 -0.51978,1.62071 -0.46338,1.767674 0.0384,0.09993 0.3248,0.107326 4.1578,0.107326 l 4.11662,0 -0.0522,-0.381863 z"
         id="path4832"
         inkscape:connector-curvature="0"
         transform="translate(656.71353,277.57001)" />
      <path
         style="opacity:1;fill:#000000;fill-opacity:1;fill-rule:evenodd;stroke-width:0;stroke-linecap:butt;stroke-linejoin:round;stroke-miterlimit:0.30000001;stroke-dasharray:none;stroke-dashoffset:0"
         d="m 157.37194,81.827936 0,-8.906251 2.0625,0 2.0625,0 0,1.3125 c 0,0.721875 0.0211,1.311436 0.0469,1.310134 0.0258,-0.0013 0.14531,-0.129998 0.26563,-0.285992 0.33757,-0.437686 1.19545,-1.228281 1.68849,-1.55605 0.52272,-0.347506 1.21954,-0.651588 1.87401,-0.817798 0.68132,-0.173029 2.60523,-0.158146 3.64143,0.02817 2.37428,0.426909 3.41602,1.421539 3.93707,3.759037 0.12949,0.580902 0.13283,0.739481 0.1543,7.328126 l 0.022,6.734375 -2.09613,0 -2.09612,0 -6e-5,-5.515625 c -5e-5,-5.652142 -0.0272,-6.458929 -0.24857,-7.396677 -0.3343,-1.415891 -0.92425,-1.98946 -2.21045,-2.149085 -1.95952,-0.243187 -3.83995,1.010627 -4.50373,3.002944 -0.34467,1.034542 -0.34969,1.132467 -0.34969,6.81663 l 0,5.241813 -2.125,0 -2.125,0 0,-8.90625 z"
         id="path4834"
         inkscape:connector-curvature="0"
         transform="translate(656.71353,277.57001)" />
      <path
         style="opacity:1;fill:#000000;fill-opacity:1;fill-rule:evenodd;stroke-width:0;stroke-linecap:butt;stroke-linejoin:round;stroke-miterlimit:0.30000001;stroke-dasharray:none;stroke-dashoffset:0"
         d="m 185.39814,90.821442 c -2.24084,-0.310304 -3.77409,-0.987709 -5.02714,-2.221042 -1.67294,-1.646614 -2.50167,-3.828013 -2.50167,-6.584964 0,-2.541613 0.71805,-4.668308 2.12708,-6.299892 1.80879,-2.094484 4.32856,-3.081431 7.55798,-2.960315 1.65839,0.0622 2.75472,0.315035 3.96875,0.915285 1.84526,0.912345 3.04552,2.351299 3.62275,4.34319 0.0872,0.300831 0.1585,0.586396 0.1585,0.634589 0,0.07369 -0.32001,0.085 -2.01284,0.07113 l -2.01285,-0.01649 -0.0519,-0.249881 c -0.0821,-0.395322 -0.45875,-1.093527 -0.79662,-1.476729 -0.17051,-0.193386 -0.50134,-0.482332 -0.73517,-0.642101 -1.59796,-1.091836 -4.34097,-0.87773 -5.77599,0.450843 -0.6986,0.64678 -1.31119,1.743354 -1.6135,2.88826 -0.1996,0.755914 -0.24647,2.384611 -0.0962,3.342894 0.18415,1.174335 0.73072,2.563944 1.30791,3.325207 0.52288,0.689642 1.38786,1.260862 2.25591,1.489767 0.9337,0.246215 2.20217,0.164729 3.0122,-0.1935 1.0645,-0.470774 2.14726,-1.657535 2.44341,-2.678114 l 0.10689,-0.368353 2.0254,0.03958 c 1.11397,0.02177 2.03649,0.05068 2.05005,0.06424 0.0404,0.04035 -0.21543,0.977183 -0.3833,1.403828 -0.81445,2.070043 -2.46787,3.595041 -4.64268,4.282061 -1.08115,0.341536 -1.74929,0.431756 -3.33072,0.449751 -0.80781,0.0092 -1.55312,0.005 -1.65625,-0.0093 z"
         id="path4836"
         inkscape:connector-curvature="0"
         transform="translate(656.71353,277.57001)" />
      <path
         style="opacity:1;fill:#000000;fill-opacity:1;fill-rule:evenodd;stroke-width:0;stroke-linecap:butt;stroke-linejoin:round;stroke-miterlimit:0.30000001;stroke-dasharray:none;stroke-dashoffset:0"
         d="m 199.92939,78.734185 0,-12 2.09375,0 2.09375,0 0,4.429847 c 0,4.975133 -0.0107,4.862431 0.39776,4.200721 0.12554,-0.203392 0.43125,-0.557743 0.67935,-0.787448 0.78004,-0.72219 2.26138,-1.334462 4.0369,-1.668532 0.58955,-0.110926 0.95188,-0.136904 1.88599,-0.135222 1.34309,0.0024 1.78919,0.0921 2.62741,0.528189 1.24809,0.649325 2.13833,2.156167 2.37123,4.013599 0.0398,0.317283 0.0639,2.943035 0.0639,6.964082 l 0,6.454765 -2.12282,0 -2.12283,0 -0.021,-6.578125 c -0.0195,-6.124262 -0.0288,-6.608311 -0.13495,-7.015626 -0.30509,-1.171165 -0.80196,-1.499232 -2.25468,-1.488717 -1.24351,0.009 -2.20324,0.286482 -3.12638,0.903915 -1.12162,0.750182 -1.8225,1.891569 -2.13241,3.472596 -0.0953,0.485945 -0.11051,1.138728 -0.13156,5.627832 l -0.0238,5.078125 -2.08979,0 -2.08979,0 0,-12.000001 z"
         id="path4838"
         inkscape:connector-curvature="0"
         transform="translate(656.71353,277.57001)" />
    </g>
    <path
       style="fill:#f46b17;fill-opacity:1;fill-rule:nonzero;stroke:none"
       d="m 176.97266,0 c -4.94657,0 -8.95313,4.0085181 -8.95313,8.9550781 0,1.5480899 0.39376,3.0029239 1.08203,4.2773439 -0.88842,0.44115 -2.96484,1.482984 -5.87109,2.990234 -1.08244,-2.21391 -3.35162,-3.746092 -5.98828,-3.746094 -3.6803,0 -6.66602,2.983666 -6.66602,6.666016 0,1.22949 0.33989,2.376735 0.91992,3.365234 -1.495,0.827151 -3.04574,1.693254 -4.63671,2.589844 -0.93539,-1.41943 -2.54489,-2.365234 -4.37891,-2.365234 -2.88993,0 -5.23242,2.346321 -5.23242,5.238281 0,0.85778 0.20474,1.664183 0.57031,2.376953 -1.64613,0.98237 -3.30627,1.986459 -4.96875,3.011719 -0.66581,-0.56164 -1.52528,-0.900391 -2.4668,-0.900391 -2.10974,0 -3.82422,1.708533 -3.82422,3.820313 0,0.33903 0.0512,0.665949 0.13282,0.980469 -6.69277,4.35223 -13.0977,8.908137 -18.28321,13.335937 C 102.35878,37.073343 93.438837,22.227399 81.023438,10.136719 l -0.03711,-0.03711 C 79.534218,8.6679302 78.32937,9.2990618 80,11.082031 c 0.0204,0.0225 0.04405,0.046 0.06445,0.06641 10.53849,11.341138 18.81617,27.748727 24.45508,42.710937 -4.35086,3.715485 -8.786661,8.143898 -12.884767,12.927734 l 8.044922,0 c 2.000605,-2.443429 4.207065,-4.995867 6.650395,-7.671875 0.0225,-0.0184 0.0441,-0.04191 0.0625,-0.06641 l 3.89453,-4.076172 c 5.45917,-5.43263 11.76023,-10.624152 18.1875,-15.382812 0.56164,0.32269 1.21379,0.511718 1.9082,0.511718 2.11381,0 3.82617,-1.712525 3.82617,-3.822265 0,-0.25938 -0.0272,-0.50492 -0.0762,-0.75 1.7074,-1.19273 3.40697,-2.349637 5.08985,-3.466797 0.89455,0.71482 2.02831,1.146484 3.25781,1.146484 2.894,0 5.23828,-2.346331 5.23828,-5.238281 0,-0.43502 -0.0601,-0.859552 -0.1582,-1.257812 1.67473,-1.04568 3.30489,-2.033264 4.86523,-2.970703 1.21725,1.272379 2.92111,2.066406 4.81641,2.066406 3.6803,0 6.66797,-2.987756 6.66797,-6.666016 0,-0.64538 -0.0979,-1.272857 -0.27149,-1.867187 2.84498,-1.58281 4.92256,-2.703444 5.93555,-3.277344 1.61142,2.35687 4.32267,3.914062 7.39844,3.914062 4.94451,0 8.95117,-4.010481 8.95117,-8.9570309 C 185.92383,4.0085181 181.91717,0 176.97266,0 Z M 76.525391,90.714844 c -4.53914,11.839676 -3.453161,22.647956 8.861328,27.949216 3.76404,1.61958 5.478858,-1.47573 3.861328,-2.43359 -0.294081,-0.16747 -11.804694,-6.39454 -4.486328,-25.515626 l -8.236328,0 z"
       transform="translate(656.71352,277.57001)"
       id="path238-9"
       inkscape:connector-curvature="0" />
    <g
       transform="scale(1.222077,0.81827905)"
       style="font-style:normal;font-variant:normal;font-weight:normal;font-stretch:normal;font-size:27.5px;line-height:125%;font-family:'URW Gothic L';-inkscape-font-specification:'URW Gothic L';text-align:end;letter-spacing:0px;word-spacing:0px;text-anchor:end;fill:#ffffff;fill-opacity:1;stroke:none;stroke-width:1px;stroke-linecap:butt;stroke-linejoin:miter;stroke-opacity:1"
       id="text3525-2-5">
      <path
         d="m 548.12742,369.34481 c -5.83,0 -10.7525,4.7575 -10.7525,10.395 0,5.9125 4.785,10.6425 10.7525,10.6425 5.885,0 10.725,-4.7575 10.725,-10.505 0,-5.8025 -4.84,-10.5325 -10.725,-10.5325 z m 0,1.87 c 4.73,0 8.6625,3.9325 8.6625,8.69 0,4.7025 -3.9325,8.6075 -8.6625,8.6075 -4.785,0 -8.69,-3.905 -8.69,-8.7175 0,-4.6475 3.9875,-8.58 8.69,-8.58 z"
         style="font-style:normal;font-variant:normal;font-weight:normal;font-stretch:normal;font-size:27.5px;font-family:'URW Gothic L';-inkscape-font-specification:'URW Gothic L';fill:#f46b17;fill-opacity:1"
         id="path3616"
         inkscape:connector-curvature="0" />
      <path
         d="m 561.79878,374.98231 0,20.3225 2.035,0 0,-7.865 c 1.32,1.925 3.355,2.9425 5.8575,2.9425 4.4825,0 7.975,-3.4375 7.975,-7.8375 0,-4.4825 -3.4375,-7.92 -7.92,-7.92 -2.5575,0 -4.6475,1.045 -5.9125,2.9425 l 0,-2.585 -2.035,0 z m 7.865,1.5125 c 3.3825,0 5.94,2.585 5.94,6.05 0,3.3825 -2.5575,5.9675 -5.9125,5.9675 -3.4375,0 -5.995,-2.6125 -5.995,-6.0775 0,-3.3275 2.64,-5.94 5.9675,-5.94 z"
         style="font-style:normal;font-variant:normal;font-weight:normal;font-stretch:normal;font-size:27.5px;font-family:'URW Gothic L';-inkscape-font-specification:'URW Gothic L';fill:#f46b17;fill-opacity:1"
         id="path3618"
         inkscape:connector-curvature="0" />
      <path
         d="m 595.6139,383.17731 c 0,-2.0625 -0.275,-3.3275 -1.0175,-4.6475 -1.3475,-2.3925 -3.96,-3.905 -6.82,-3.905 -4.3725,0 -7.81,3.4375 -7.81,7.81 0,4.455 3.4925,7.9475 7.9475,7.9475 1.925,0 3.74,-0.715 5.115,-2.0075 1.0725,-1.0175 1.7875,-2.0625 2.2,-3.3 l -2.1175,0 c -0.8525,2.0625 -2.97,3.4375 -5.2525,3.4375 -3.08,0 -5.6925,-2.365 -5.8575,-5.335 l 13.6125,0 z m -13.5575,-1.8425 c 0.55,-2.8875 2.8325,-4.84 5.6925,-4.84 2.915,0 5.1425,1.8425 5.83,4.84 l -11.5225,0 z"
         style="font-style:normal;font-variant:normal;font-weight:normal;font-stretch:normal;font-size:27.5px;font-family:'URW Gothic L';-inkscape-font-specification:'URW Gothic L';fill:#ffffff"
         id="path3620"
         inkscape:connector-curvature="0" />
      <path
         d="m 598.42964,390.02481 2.035,0 0,-8.2775 c 0,-1.6775 0.22,-2.5575 0.7975,-3.41 0.7975,-1.155 2.2,-1.8425 3.795,-1.8425 1.485,0 2.8325,0.605 3.6575,1.6225 0.715,0.935 0.99,2.035 0.99,4.015 l 0,7.8925 2.035,0 0,-7.8925 c 0,-2.53 -0.3575,-3.8775 -1.32,-5.17 -1.1825,-1.485 -2.9975,-2.3375 -5.115,-2.3375 -1.98,0 -3.575,0.77 -4.84,2.31 l 0,-1.9525 -2.035,0 0,15.0425 z"
         style="font-style:normal;font-variant:normal;font-weight:normal;font-stretch:normal;font-size:27.5px;font-family:'URW Gothic L';-inkscape-font-specification:'URW Gothic L';fill:#ffffff"
         id="path3622"
         inkscape:connector-curvature="0" />
    </g>
  </g>
</svg>
