<?xml version="1.0" encoding="UTF-8" standalone="no"?>
<!-- Created with Inkscape (http://www.inkscape.org/) -->

<svg
   xmlns:osb="http://www.openswatchbook.org/uri/2009/osb"
   xmlns:dc="http://purl.org/dc/elements/1.1/"
   xmlns:cc="http://creativecommons.org/ns#"
   xmlns:rdf="http://www.w3.org/1999/02/22-rdf-syntax-ns#"
   xmlns:svg="http://www.w3.org/2000/svg"
   xmlns="http://www.w3.org/2000/svg"
   xmlns:xlink="http://www.w3.org/1999/xlink"
   xmlns:sodipodi="http://sodipodi.sourceforge.net/DTD/sodipodi-0.dtd"
   xmlns:inkscape="http://www.inkscape.org/namespaces/inkscape"
   width="216.20702"
   height="119.12486"
   id="svg3873"
   version="1.1"
   inkscape:version="0.91 r13725"
   sodipodi:docname="ELIXIR_Dna_white2 (copy).svg"
   inkscape:export-filename="/home/jmfernandez/docs/Logos/ELIXIR-Spain.png"
   inkscape:export-xdpi="300"
   inkscape:export-ydpi="300">
  <defs
     id="defs3875">
    <linearGradient
       inkscape:collect="always"
       id="linearGradient6340">
      <stop
         style="stop-color:#000000;stop-opacity:1;"
         offset="0"
         id="stop6342" />
      <stop
         style="stop-color:#000000;stop-opacity:0;"
         offset="1"
         id="stop6344" />
    </linearGradient>
    <linearGradient
       id="linearGradient6326"
       osb:paint="solid">
      <stop
         style="stop-color:#000000;stop-opacity:1;"
         offset="0"
         id="stop6328" />
    </linearGradient>
    <linearGradient
       id="linearGradient6142"
       osb:paint="solid">
      <stop
         style="stop-color:#98bac1;stop-opacity:1;"
         offset="0"
         id="stop6144" />
    </linearGradient>
    <linearGradient
       id="linearGradient5686"
       osb:paint="solid">
      <stop
         style="stop-color:#28170b;stop-opacity:1;"
         offset="0"
         id="stop5688" />
    </linearGradient>
    <linearGradient
       id="linearGradient6455"
       osb:paint="solid">
      <stop
         style="stop-color:#f46b17;stop-opacity:1;"
         offset="0"
         id="stop6457" />
    </linearGradient>
    <linearGradient
       inkscape:collect="always"
       xlink:href="#linearGradient6340"
       id="linearGradient6346"
       x1="733.24086"
       y1="352.46297"
       x2="872.92055"
       y2="352.46297"
       gradientUnits="userSpaceOnUse" />
  </defs>
  <sodipodi:namedview
     id="base"
     pagecolor="#ffffff"
     bordercolor="#666666"
     borderopacity="1.0"
     inkscape:pageopacity="0.0"
     inkscape:pageshadow="2"
     inkscape:zoom="2.8284271"
     inkscape:cx="222.17621"
     inkscape:cy="40.555106"
     inkscape:document-units="px"
     inkscape:current-layer="layer1"
     showgrid="false"
     fit-margin-top="0"
     fit-margin-left="0"
     fit-margin-right="0"
     fit-margin-bottom="0"
     inkscape:window-width="1920"
     inkscape:window-height="1031"
     inkscape:window-x="0"
     inkscape:window-y="27"
     inkscape:window-maximized="1" />
  <metadata
     id="metadata3878">
    <rdf:RDF>
      <cc:Work
         rdf:about="">
        <dc:format>image/svg+xml</dc:format>
        <dc:type
           rdf:resource="http://purl.org/dc/dcmitype/StillImage" />
        <dc:title></dc:title>
      </cc:Work>
    </rdf:RDF>
  </metadata>
  <g
     inkscape:label="Layer 1"
     inkscape:groupmode="layer"
     id="layer1"
     transform="translate(-656.71353,-277.57001)">
    <g
       id="g3399"
       style="opacity:1;fill:url(#linearGradient6346);fill-opacity:1;fill-rule:nonzero;stroke:none;stroke-opacity:1"
       inkscape:transform-center-x="49.497475"
       inkscape:transform-center-y="21.213196">
      <path
         id="path5594"
         transform="translate(656.71352,277.57001)"
         d="m 110.28711,54.972656 -3.89453,4.076172 c 4.86078,14.0697 7.20607,26.071316 6.6914,30.072266 -0.2798,2.17714 -1.68427,3.085965 -2.25,3.353515 -0.90475,0.42685 -1.27685,1.68092 0.14258,2.09961 3.32072,0.977025 5.68931,-1.18733 6.92188,-3.832031 l 4.0039,0 c 1.78667,0 3.30722,-0.195395 4.56055,-0.583985 1.28,-0.38858 2.21412,-0.913302 2.80078,-1.576172 0.61333,-0.66288 1.0393,-1.315058 1.2793,-1.955078 0.24,-0.64002 0.35937,-1.314847 0.35937,-2.023437 0,-1.53147 -0.4651,-2.844227 -1.39843,-3.941407 -0.93333,-1.09717 -2.26667,-1.817286 -4,-2.160156 l 0.0801,-0.308594 c 1.52,-0.38859 2.69287,-1.075713 3.51954,-2.058593 0.82666,-1.00575 1.24023,-2.147695 1.24023,-3.427735 0,-1.80577 -0.66667,-3.245992 -2,-4.320312 -1.30666,-1.09717 -3.45474,-1.646485 -6.44141,-1.646485 l -7.59375,0 c -1.29163,-4.387665 -2.71036,-8.581964 -4.02148,-11.767578 z m 89.59961,11.767578 0,24.001954 4.2793,0 0,-9.085938 c 0,-1.965773 0.4938,-3.451285 1.48046,-4.457031 1.01334,-1.0286 2.34667,-1.542969 4,-1.542969 0.98668,0 1.61225,0.273679 1.87891,0.822266 0.26667,0.525733 0.40039,1.45159 0.40039,2.777343 l 0,11.486329 4.28125,0 0,-12.378907 c 0,-1.668626 -0.41357,-3.028618 -1.24023,-4.080078 -0.8,-1.05146 -2.06745,-1.576172 -3.80078,-1.576172 -1.33334,0 -2.69342,0.25104 -4.08008,0.753907 -1.38668,0.48002 -2.31883,1.235065 -2.79883,2.263671 l -0.12109,-0.138671 0,-8.845704 -4.2793,0 z m -108.251954,0.04687 c -6.4559,7.53616 -12.053382,15.958805 -15.107422,23.921875 l 26.695316,0 c 0.96887,-0.0202 1.75,-0.807473 1.75,-1.783203 0,-0.98442 -0.80066,-1.787109 -1.78711,-1.787109 l -16.896488,0 c 0.98645,-2.11382 2.192432,-4.363922 3.644532,-6.763672 l 13.251956,0 c 0.98645,0 1.78711,-0.802689 1.78711,-1.787109 0,-0.99054 -0.80066,-1.78711 -1.78711,-1.78711 l -10.974612,0 c 1.36837,-2.04643 2.903039,-4.188967 4.630859,-6.435547 l 6.343753,0 c 0.98645,0 1.78711,-0.796569 1.78711,-1.787109 0,-0.98849 -0.80066,-1.787109 -1.78711,-1.787109 l -3.509769,0 c 0.001,-10e-4 0.0029,-0.0019 0.0039,-0.0039 l -8.044922,0 z m 23.658204,3.382813 4.65039,0 c 2.08,0 3.54706,0.251036 4.40039,0.753906 0.85333,0.48001 1.2793,1.245415 1.2793,2.296875 0,2.28579 -1.73255,3.429688 -5.19922,3.429688 l -3.54492,0 c -0.45643,-2.105177 -0.99636,-4.294053 -1.58594,-6.480469 z m 28.27148,2.537109 c -2.77333,0 -4.89271,0.800338 -6.35937,2.400391 -1.44,1.577187 -2.16016,3.725232 -2.16016,6.445312 0,2.697227 0.83953,4.93779 2.51953,6.720704 1.68,1.760053 3.87961,2.638671 6.59961,2.638671 0.98667,0 1.87969,-0.09057 2.67969,-0.273437 0.82667,-0.182867 1.52008,-0.456546 2.08008,-0.822266 0.56,-0.388586 1.02706,-0.742486 1.40039,-1.0625 0.4,-0.32 0.74767,-0.743798 1.04101,-1.269531 0.32,-0.548587 0.51961,-0.925139 0.59961,-1.130859 0.10667,-0.20572 0.25279,-0.536981 0.43946,-0.994141 l -4.11914,0 c -0.42667,1.7372 -1.69412,2.605469 -3.80078,2.605469 -1.44,0 -2.57373,-0.411489 -3.4004,-1.234375 -0.8,-0.82288 -1.24031,-1.909199 -1.32031,-3.257813 l -0.0801,-1.267578 12.76172,0 c 0,-0.777167 -0.0144,-1.394402 -0.041,-1.851562 0,-0.457154 -0.0659,-1.064046 -0.19922,-1.81836 -0.10667,-0.754306 -0.26714,-1.359246 -0.48047,-1.816406 -0.21334,-0.457147 -0.54667,-0.971515 -1,-1.542969 -0.42667,-0.57144 -0.94721,-1.017877 -1.56055,-1.33789 -0.61333,-0.320014 -1.39937,-0.583343 -2.35937,-0.789063 -0.93334,-0.228573 -2.01357,-0.341797 -3.24024,-0.341797 z m 23.13477,0 c -2,0 -3.72016,0.948503 -5.16016,2.845703 l 0,-2.673828 -4.20117,0 0,17.863282 4.28125,0 0,-9.498047 c 0,-1.85148 0.43837,-3.246421 1.31836,-4.183594 0.88,-0.937173 1.87999,-1.404297 3,-1.404297 1.2,0 1.988,0.376553 2.36133,1.130859 0.4,0.754307 0.59961,1.885912 0.59961,3.394532 l 0,10.560547 4.27929,0 0,-11.623047 c 0,-2.46864 -0.47945,-4.149556 -1.43945,-5.041016 -0.93333,-0.914313 -2.61239,-1.371094 -5.03906,-1.371094 z m 20.37305,0 c -2.82667,0 -5.07977,0.868269 -6.75977,2.605469 -1.65333,1.714333 -2.48047,3.954903 -2.48047,6.720703 0,2.651507 0.78604,4.799546 2.35938,6.445313 1.57333,1.622906 3.76054,2.433593 6.56054,2.433593 l 0,0.002 c 2.50666,0 4.49427,-0.561607 5.96094,-1.68164 1.46667,-1.120033 2.38643,-2.65083 2.75977,-4.59375 l -4.16016,-0.06836 c -0.18666,0.891461 -0.68046,1.679502 -1.48047,2.365235 -0.77333,0.68574 -1.6931,1.029297 -2.75976,1.029297 -0.90667,0 -1.70706,-0.205741 -2.40039,-0.617188 -0.66667,-0.41144 -1.17287,-0.948455 -1.51954,-1.611328 -0.34666,-0.66288 -0.61411,-1.35 -0.80078,-2.058594 -0.15999,-0.708593 -0.23828,-1.428709 -0.23828,-2.160156 0,-1.577193 0.42597,-2.947528 1.2793,-4.113281 0.85333,-1.165747 2.13318,-1.748047 3.83984,-1.748047 1.12,0 2.03977,0.308621 2.75977,0.925781 0.72,0.61716 1.14595,1.347613 1.27929,2.19336 l 4.08008,0 c -0.32,-1.851494 -1.19867,-3.324702 -2.63867,-4.421875 -1.41333,-1.097174 -3.29396,-1.646485 -5.64062,-1.646485 z m -42.70704,2.949219 c 2.37334,0 3.63883,1.199536 3.79883,3.599609 l -8.19922,0 c 0.13334,-1.394326 0.58605,-2.342823 1.35938,-2.845703 0.77333,-0.502866 1.78768,-0.753906 3.04101,-0.753906 z m -26.80859,4.421875 3.22656,0 c 1.68,0 2.999,0.263332 3.95899,0.789063 0.96,0.50288 1.4414,1.406094 1.4414,2.708984 0,2.4915 -1.89301,3.736328 -5.67968,3.736328 l -2.13282,0 c -0.0211,-1.983115 -0.32041,-4.4739 -0.81445,-7.234375 z"
         style="font-style:normal;font-variant:normal;font-weight:bold;font-stretch:normal;font-size:medium;line-height:483.99991989%;font-family:Garuda;-inkscape-font-specification:'Garuda Bold';letter-spacing:0.14999999px;word-spacing:0px;fill:url(#linearGradient6346);fill-opacity:1;fill-rule:nonzero;stroke:none;stroke-width:1px;stroke-linecap:butt;stroke-linejoin:miter;stroke-opacity:1"
         inkscape:connector-curvature="0" />
    </g>
    <path
       style="fill:#f46b17;fill-opacity:1;fill-rule:nonzero;stroke:none"
       d="m 176.97266,0 c -4.94657,0 -8.95313,4.0085181 -8.95313,8.9550781 0,1.5480899 0.39376,3.0029239 1.08203,4.2773439 -0.88842,0.44115 -2.96484,1.482984 -5.87109,2.990234 -1.08244,-2.21391 -3.35162,-3.746092 -5.98828,-3.746094 -3.6803,0 -6.66602,2.983666 -6.66602,6.666016 0,1.22949 0.33989,2.376735 0.91992,3.365234 -1.495,0.827151 -3.04574,1.693254 -4.63671,2.589844 -0.93539,-1.41943 -2.54489,-2.365234 -4.37891,-2.365234 -2.88993,0 -5.23242,2.346321 -5.23242,5.238281 0,0.85778 0.20474,1.664183 0.57031,2.376953 -1.64613,0.98237 -3.30627,1.986459 -4.96875,3.011719 -0.66581,-0.56164 -1.52528,-0.900391 -2.4668,-0.900391 -2.10974,0 -3.82422,1.708533 -3.82422,3.820313 0,0.33903 0.0512,0.665949 0.13282,0.980469 -6.69277,4.35223 -13.0977,8.908137 -18.28321,13.335937 C 102.35878,37.073343 93.438837,22.227399 81.023438,10.136719 l -0.03711,-0.03711 C 79.534218,8.6679302 78.32937,9.2990618 80,11.082031 c 0.0204,0.0225 0.04405,0.046 0.06445,0.06641 10.53849,11.341138 18.81617,27.748727 24.45508,42.710937 -4.35086,3.715485 -8.786661,8.143898 -12.884767,12.927734 l 8.044922,0 c 2.000605,-2.443429 4.207065,-4.995867 6.650395,-7.671875 0.0225,-0.0184 0.0441,-0.04191 0.0625,-0.06641 l 3.89453,-4.076172 c 5.45917,-5.43263 11.76023,-10.624152 18.1875,-15.382812 0.56164,0.32269 1.21379,0.511718 1.9082,0.511718 2.11381,0 3.82617,-1.712525 3.82617,-3.822265 0,-0.25938 -0.0272,-0.50492 -0.0762,-0.75 1.7074,-1.19273 3.40697,-2.349637 5.08985,-3.466797 0.89455,0.71482 2.02831,1.146484 3.25781,1.146484 2.894,0 5.23828,-2.346331 5.23828,-5.238281 0,-0.43502 -0.0601,-0.859552 -0.1582,-1.257812 1.67473,-1.04568 3.30489,-2.033264 4.86523,-2.970703 1.21725,1.272379 2.92111,2.066406 4.81641,2.066406 3.6803,0 6.66797,-2.987756 6.66797,-6.666016 0,-0.64538 -0.0979,-1.272857 -0.27149,-1.867187 2.84498,-1.58281 4.92256,-2.703444 5.93555,-3.277344 1.61142,2.35687 4.32267,3.914062 7.39844,3.914062 4.94451,0 8.95117,-4.010481 8.95117,-8.9570309 C 185.92383,4.0085181 181.91717,0 176.97266,0 Z M 76.525391,90.714844 c -4.53914,11.839676 -3.453161,22.647956 8.861328,27.949216 3.76404,1.61958 5.478858,-1.47573 3.861328,-2.43359 -0.294081,-0.16747 -11.804694,-6.39454 -4.486328,-25.515626 l -8.236328,0 z"
       transform="translate(656.71352,277.57001)"
       id="path238-9"
       inkscape:connector-curvature="0" />
    <g
       transform="scale(1.222077,0.81827905)"
       style="font-style:normal;font-variant:normal;font-weight:normal;font-stretch:normal;font-size:27.5px;line-height:125%;font-family:'URW Gothic L';-inkscape-font-specification:'URW Gothic L';text-align:end;letter-spacing:0px;word-spacing:0px;text-anchor:end;fill:#ffffff;fill-opacity:1;stroke:none;stroke-width:1px;stroke-linecap:butt;stroke-linejoin:miter;stroke-opacity:1"
       id="text3525-2-5">
      <path
         d="m 548.12742,369.34481 c -5.83,0 -10.7525,4.7575 -10.7525,10.395 0,5.9125 4.785,10.6425 10.7525,10.6425 5.885,0 10.725,-4.7575 10.725,-10.505 0,-5.8025 -4.84,-10.5325 -10.725,-10.5325 z m 0,1.87 c 4.73,0 8.6625,3.9325 8.6625,8.69 0,4.7025 -3.9325,8.6075 -8.6625,8.6075 -4.785,0 -8.69,-3.905 -8.69,-8.7175 0,-4.6475 3.9875,-8.58 8.69,-8.58 z"
         style="font-style:normal;font-variant:normal;font-weight:normal;font-stretch:normal;font-size:27.5px;font-family:'URW Gothic L';-inkscape-font-specification:'URW Gothic L';fill:#ffffff"
         id="path3616"
         inkscape:connector-curvature="0" />
      <path
         d="m 561.79878,374.98231 0,20.3225 2.035,0 0,-7.865 c 1.32,1.925 3.355,2.9425 5.8575,2.9425 4.4825,0 7.975,-3.4375 7.975,-7.8375 0,-4.4825 -3.4375,-7.92 -7.92,-7.92 -2.5575,0 -4.6475,1.045 -5.9125,2.9425 l 0,-2.585 -2.035,0 z m 7.865,1.5125 c 3.3825,0 5.94,2.585 5.94,6.05 0,3.3825 -2.5575,5.9675 -5.9125,5.9675 -3.4375,0 -5.995,-2.6125 -5.995,-6.0775 0,-3.3275 2.64,-5.94 5.9675,-5.94 z"
         style="font-style:normal;font-variant:normal;font-weight:normal;font-stretch:normal;font-size:27.5px;font-family:'URW Gothic L';-inkscape-font-specification:'URW Gothic L';fill:#ffffff"
         id="path3618"
         inkscape:connector-curvature="0" />
      <path
         d="m 595.6139,383.17731 c 0,-2.0625 -0.275,-3.3275 -1.0175,-4.6475 -1.3475,-2.3925 -3.96,-3.905 -6.82,-3.905 -4.3725,0 -7.81,3.4375 -7.81,7.81 0,4.455 3.4925,7.9475 7.9475,7.9475 1.925,0 3.74,-0.715 5.115,-2.0075 1.0725,-1.0175 1.7875,-2.0625 2.2,-3.3 l -2.1175,0 c -0.8525,2.0625 -2.97,3.4375 -5.2525,3.4375 -3.08,0 -5.6925,-2.365 -5.8575,-5.335 l 13.6125,0 z m -13.5575,-1.8425 c 0.55,-2.8875 2.8325,-4.84 5.6925,-4.84 2.915,0 5.1425,1.8425 5.83,4.84 l -11.5225,0 z"
         style="font-style:normal;font-variant:normal;font-weight:normal;font-stretch:normal;font-size:27.5px;font-family:'URW Gothic L';-inkscape-font-specification:'URW Gothic L';fill:#ffffff"
         id="path3620"
         inkscape:connector-curvature="0" />
      <path
         d="m 598.42964,390.02481 2.035,0 0,-8.2775 c 0,-1.6775 0.22,-2.5575 0.7975,-3.41 0.7975,-1.155 2.2,-1.8425 3.795,-1.8425 1.485,0 2.8325,0.605 3.6575,1.6225 0.715,0.935 0.99,2.035 0.99,4.015 l 0,7.8925 2.035,0 0,-7.8925 c 0,-2.53 -0.3575,-3.8775 -1.32,-5.17 -1.1825,-1.485 -2.9975,-2.3375 -5.115,-2.3375 -1.98,0 -3.575,0.77 -4.84,2.31 l 0,-1.9525 -2.035,0 0,15.0425 z"
         style="font-style:normal;font-variant:normal;font-weight:normal;font-stretch:normal;font-size:27.5px;font-family:'URW Gothic L';-inkscape-font-specification:'URW Gothic L';fill:#ffffff"
         id="path3622"
         inkscape:connector-curvature="0" />
    </g>
  </g>
</svg>
