<?xml version="1.0" encoding="UTF-8" standalone="no"?>
<!-- Created with Inkscape (http://www.inkscape.org/) -->

<svg
   xmlns:dc="http://purl.org/dc/elements/1.1/"
   xmlns:cc="http://creativecommons.org/ns#"
   xmlns:rdf="http://www.w3.org/1999/02/22-rdf-syntax-ns#"
   xmlns:svg="http://www.w3.org/2000/svg"
   xmlns="http://www.w3.org/2000/svg"
   xmlns:sodipodi="http://sodipodi.sourceforge.net/DTD/sodipodi-0.dtd"
   xmlns:inkscape="http://www.inkscape.org/namespaces/inkscape"
   width="163.42072"
   height="88.030739"
   id="svg3873"
   version="1.1"
   inkscape:version="0.91 r13725"
   sodipodi:docname="ELIXIR_Dna_white.svg"
   inkscape:export-filename="/home/jmfernandez/docs/Logos/ELIXIR-Spain.png"
   inkscape:export-xdpi="300"
   inkscape:export-ydpi="300">
  <defs
     id="defs3875" />
  <sodipodi:namedview
     id="base"
     pagecolor="#ffffff"
     bordercolor="#666666"
     borderopacity="1.0"
     inkscape:pageopacity="0.0"
     inkscape:pageshadow="2"
     inkscape:zoom="1.979899"
     inkscape:cx="-195.48235"
     inkscape:cy="-44.534516"
     inkscape:document-units="px"
     inkscape:current-layer="layer1"
     showgrid="false"
     fit-margin-top="0"
     fit-margin-left="0"
     fit-margin-right="0"
     fit-margin-bottom="0"
     inkscape:window-width="1920"
     inkscape:window-height="1031"
     inkscape:window-x="0"
     inkscape:window-y="27"
     inkscape:window-maximized="1" />
  <metadata
     id="metadata3878">
    <rdf:RDF>
      <cc:Work
         rdf:about="">
        <dc:format>image/svg+xml</dc:format>
        <dc:type
           rdf:resource="http://purl.org/dc/dcmitype/StillImage" />
        <dc:title></dc:title>
      </cc:Work>
    </rdf:RDF>
  </metadata>
  <g
     inkscape:label="Layer 1"
     inkscape:groupmode="layer"
     id="layer1"
     transform="translate(-730.77025,-308.66435)">
    <g
       id="g3934"
       transform="matrix(1.2073979,0,0,1.2073979,137.49826,-96.909603)">
      <g
         transform="matrix(1.25,0,0,-1.25,554.35326,335.90745)"
         id="g236">
        <path
           id="path238"
           style="fill:#f46b17;fill-opacity:1;fill-rule:nonzero;stroke:none"
           d="m 0,0 c -2.422,0 -4.384,-1.963 -4.384,-4.385 0,-0.758 0.193,-1.47 0.53,-2.094 -0.435,-0.216 -1.452,-0.726 -2.875,-1.464 -0.53,1.084 -1.641,1.834 -2.932,1.834 -1.802,0 -3.264,-1.461 -3.264,-3.264 0,-0.602 0.167,-1.164 0.451,-1.648 -0.732,-0.405 -1.492,-0.829 -2.271,-1.268 -0.458,0.695 -1.246,1.158 -2.144,1.158 -1.415,0 -2.562,-1.148 -2.562,-2.564 0,-0.42 0.101,-0.815 0.28,-1.164 -0.806,-0.481 -1.619,-0.973 -2.433,-1.475 -0.326,0.275 -0.747,0.441 -1.208,0.441 -1.033,0 -1.873,-0.837 -1.873,-1.871 0,-0.166 0.025,-0.326 0.065,-0.48 -3.277,-2.131 -6.413,-4.361 -8.952,-6.529 -2.962,6.621 -7.329,13.89 -13.408,19.81 l -0.018,0.018 c -0.711,0.701 -1.301,0.392 -0.483,-0.481 0.01,-0.011 0.021,-0.023 0.031,-0.033 5.16,-5.553 9.213,-13.586 11.974,-20.912 -10.477,-8.947 -22.028,-26.281 -9.368,-31.731 1.843,-0.793 2.683,0.723 1.891,1.192 -0.144,0.082 -5.781,3.131 -2.197,12.494 l 9.021,0 c 0.483,0 0.875,0.391 0.875,0.875 0,0.482 -0.392,0.875 -0.875,0.875 l -8.273,0 c 0.483,1.035 1.074,2.137 1.785,3.312 l 6.488,0 c 0.483,0 0.875,0.393 0.875,0.875 0,0.485 -0.392,0.875 -0.875,0.875 l -5.373,0 c 0.67,1.002 1.421,2.051 2.267,3.151 l 3.106,0 c 0.483,0 0.875,0.39 0.875,0.875 0,0.484 -0.392,0.875 -0.875,0.875 l -1.718,0 c 0.98,1.197 2.061,2.447 3.258,3.758 0.011,0.009 0.021,0.021 0.03,0.033 2.38,-6.889 3.529,-12.766 3.277,-14.725 -0.137,-1.066 -0.825,-1.511 -1.102,-1.642 -0.443,-0.209 -0.625,-0.823 0.07,-1.028 2.216,-0.652 3.582,1.547 3.827,3.315 0.248,1.779 -0.965,8.301 -4.165,16.076 2.673,2.66 5.759,5.201 8.906,7.531 0.275,-0.158 0.594,-0.25 0.934,-0.25 1.035,0 1.873,0.838 1.873,1.871 0,0.127 -0.013,0.248 -0.037,0.368 0.836,0.584 1.668,1.15 2.492,1.697 0.438,-0.35 0.993,-0.561 1.595,-0.561 1.417,0 2.565,1.149 2.565,2.565 0,0.213 -0.029,0.42 -0.077,0.615 0.82,0.512 1.618,0.996 2.382,1.455 0.596,-0.623 1.43,-1.012 2.358,-1.012 1.802,0 3.265,1.463 3.265,3.264 0,0.316 -0.048,0.623 -0.133,0.914 1.393,0.775 2.41,1.324 2.906,1.605 0.789,-1.154 2.117,-1.916 3.623,-1.916 2.421,0 4.383,1.963 4.383,4.385 C 4.383,-1.963 2.421,0 0,0"
           inkscape:connector-curvature="0" />
      </g>
    </g>
    <flowRoot
       xml:space="preserve"
       id="flowRoot3371"
       style="font-style:italic;font-variant:normal;font-weight:500;font-stretch:normal;font-size:40px;line-height:125%;font-family:'URW Chancery L';-inkscape-font-specification:'URW Chancery L Medium Italic';letter-spacing:0px;word-spacing:0px;fill:#000000;fill-opacity:1;stroke:none;stroke-width:1px;stroke-linecap:butt;stroke-linejoin:miter;stroke-opacity:1"
       transform="translate(463.02514,335.90745)"><flowRegion
         id="flowRegion3373"><rect
           id="rect3375"
           width="122.22845"
           height="53.033009"
           x="16.162441"
           y="16.846004"
           style="font-style:italic;font-variant:normal;font-weight:500;font-stretch:normal;font-family:'URW Chancery L';-inkscape-font-specification:'URW Chancery L Medium Italic'" /></flowRegion><flowPara
         id="flowPara3377">openEbenc</flowPara></flowRoot>    <flowRoot
       xml:space="preserve"
       id="flowRoot3379"
       style="font-style:italic;font-variant:normal;font-weight:500;font-stretch:normal;font-size:40px;line-height:125%;font-family:'URW Chancery L';-inkscape-font-specification:'URW Chancery L Medium Italic';letter-spacing:0px;word-spacing:0px;fill:#000000;fill-opacity:1;stroke:none;stroke-width:1px;stroke-linecap:butt;stroke-linejoin:miter;stroke-opacity:1"
       transform="translate(463.02514,335.90745)"><flowRegion
         id="flowRegion3381"><rect
           id="rect3383"
           width="164.65486"
           height="56.063465"
           x="-106.57109"
           y="14.320622"
           style="font-style:italic;font-variant:normal;font-weight:500;font-stretch:normal;font-family:'URW Chancery L';-inkscape-font-specification:'URW Chancery L Medium Italic'" /></flowRegion><flowPara
         id="flowPara3385" /></flowRoot>    <flowRoot
       xml:space="preserve"
       id="flowRoot3397"
       style="font-style:italic;font-variant:normal;font-weight:500;font-stretch:normal;font-size:40px;line-height:125%;font-family:'URW Chancery L';-inkscape-font-specification:'URW Chancery L Medium Italic';letter-spacing:0px;word-spacing:0px;fill:#000000;fill-opacity:1;stroke:none;stroke-width:1px;stroke-linecap:butt;stroke-linejoin:miter;stroke-opacity:1"><flowRegion
         id="flowRegion3399"><rect
           id="rect3401"
           width="283.34778"
           height="102.53048"
           x="33.840111"
           y="-114.9789"
           style="font-style:italic;font-variant:normal;font-weight:500;font-stretch:normal;font-family:'URW Chancery L';-inkscape-font-specification:'URW Chancery L Medium Italic'" /></flowRegion><flowPara
         id="flowPara3403" /></flowRoot>    <flowRoot
       xml:space="preserve"
       id="flowRoot3423"
       style="font-style:italic;font-variant:normal;font-weight:500;font-stretch:normal;font-size:40px;line-height:125%;font-family:'URW Chancery L';-inkscape-font-specification:'URW Chancery L Medium Italic';letter-spacing:0px;word-spacing:0px;fill:#000000;fill-opacity:1;stroke:none;stroke-width:1px;stroke-linecap:butt;stroke-linejoin:miter;stroke-opacity:1"><flowRegion
         id="flowRegion3425"><rect
           id="rect3427"
           width="159.09903"
           height="61.114227"
           x="-17.67767"
           y="-108.41291"
           style="font-style:italic;font-variant:normal;font-weight:500;font-stretch:normal;font-family:'URW Chancery L';-inkscape-font-specification:'URW Chancery L Medium Italic'" /></flowRegion><flowPara
         id="flowPara3429" /></flowRoot>    <flowRoot
       xml:space="preserve"
       id="flowRoot3509"
       style="font-style:normal;font-weight:normal;font-size:40px;line-height:125%;font-family:sans-serif;letter-spacing:0px;word-spacing:0px;fill:#000000;fill-opacity:1;stroke:none;stroke-width:1px;stroke-linecap:butt;stroke-linejoin:miter;stroke-opacity:1"><flowRegion
         id="flowRegion3511"><rect
           id="rect3513"
           width="259.10413"
           height="129.29953"
           x="-238.90108"
           y="10.785089" /></flowRegion><flowPara
         id="flowPara3515" /></flowRoot>    <flowRoot
       xml:space="preserve"
       id="flowRoot3517"
       style="font-style:italic;font-variant:normal;font-weight:normal;font-stretch:normal;font-size:40px;line-height:125%;font-family:sans-serif;-inkscape-font-specification:'sans-serif Italic';letter-spacing:0px;word-spacing:0px;fill:#000000;fill-opacity:1;stroke:none;stroke-width:1px;stroke-linecap:butt;stroke-linejoin:miter;stroke-opacity:1"><flowRegion
         id="flowRegion3519"><rect
           id="rect3521"
           width="323.24881"
           height="66.164993"
           x="-231.83"
           y="140.58969"
           style="font-style:italic;font-variant:normal;font-weight:normal;font-stretch:normal;font-family:sans-serif;-inkscape-font-specification:'sans-serif Italic'" /></flowRegion><flowPara
         id="flowPara3523" /></flowRoot>    <text
       xml:space="preserve"
       style="font-style:oblique;font-variant:normal;font-weight:normal;font-stretch:normal;font-size:30.14254189px;line-height:125%;font-family:'URW Gothic L';-inkscape-font-specification:'URW Gothic L Oblique';letter-spacing:0px;word-spacing:0px;fill:#ffffff;fill-opacity:1;stroke:none;stroke-width:1px;stroke-linecap:butt;stroke-linejoin:miter;stroke-opacity:1;"
       x="619.20435"
       y="440.5647"
       id="text3525"
       sodipodi:linespacing="125%"
       transform="scale(1.222077,0.81827905)"><tspan
         sodipodi:role="line"
         x="619.20435"
         y="440.5647"
         id="tspan3529">Open</tspan><tspan
         sodipodi:role="line"
         x="619.20435"
         y="478.24289"
         id="tspan3533">Ebench</tspan></text>
  </g>
</svg>
