<?xml version="1.0" encoding="UTF-8" standalone="no"?>
<!-- Created with Inkscape (http://www.inkscape.org/) -->

<svg
   xmlns:osb="http://www.openswatchbook.org/uri/2009/osb"
   xmlns:dc="http://purl.org/dc/elements/1.1/"
   xmlns:cc="http://creativecommons.org/ns#"
   xmlns:rdf="http://www.w3.org/1999/02/22-rdf-syntax-ns#"
   xmlns:svg="http://www.w3.org/2000/svg"
   xmlns="http://www.w3.org/2000/svg"
   xmlns:sodipodi="http://sodipodi.sourceforge.net/DTD/sodipodi-0.dtd"
   xmlns:inkscape="http://www.inkscape.org/namespaces/inkscape"
   width="216.31267"
   height="119.12495"
   id="svg3873"
   version="1.1"
   inkscape:version="0.91 r13725"
   sodipodi:docname="ELIXIR_Dna_white2_curve.svg"
   inkscape:export-filename="/home/jmfernandez/docs/Logos/ELIXIR-Spain.png"
   inkscape:export-xdpi="300"
   inkscape:export-ydpi="300">
  <defs
     id="defs3875">
    <linearGradient
       id="linearGradient6455"
       osb:paint="solid">
      <stop
         style="stop-color:#f46b17;stop-opacity:1;"
         offset="0"
         id="stop6457" />
    </linearGradient>
  </defs>
  <sodipodi:namedview
     id="base"
     pagecolor="#ffffff"
     bordercolor="#666666"
     borderopacity="1.0"
     inkscape:pageopacity="0.0"
     inkscape:pageshadow="2"
     inkscape:zoom="3.959798"
     inkscape:cx="160.37479"
     inkscape:cy="16.076736"
     inkscape:document-units="px"
     inkscape:current-layer="layer1"
     showgrid="false"
     fit-margin-top="0"
     fit-margin-left="0"
     fit-margin-right="0"
     fit-margin-bottom="0"
     inkscape:window-width="1855"
     inkscape:window-height="1056"
     inkscape:window-x="65"
     inkscape:window-y="24"
     inkscape:window-maximized="1" />
  <metadata
     id="metadata3878">
    <rdf:RDF>
      <cc:Work
         rdf:about="">
        <dc:format>image/svg+xml</dc:format>
        <dc:type
           rdf:resource="http://purl.org/dc/dcmitype/StillImage" />
        <dc:title></dc:title>
      </cc:Work>
    </rdf:RDF>
  </metadata>
  <g
     inkscape:label="Layer 1"
     inkscape:groupmode="layer"
     id="layer1"
     transform="translate(-656.71352,-277.57001)">
    <path
       id="path238-9"
       style="fill:#f46b17;fill-opacity:1;fill-rule:nonzero;stroke:none"
       d="m 833.68653,277.57001 c -4.94657,0 -8.95364,4.00912 -8.95364,8.95568 0,1.54809 0.39417,3.00224 1.08244,4.27666 -0.88842,0.44115 -2.96548,1.48275 -5.87173,2.99 -1.08244,-2.21391 -3.35149,-3.74566 -5.98815,-3.74566 -3.6803,0 -6.66622,2.98386 -6.66622,6.66621 0,1.22949 0.34107,2.37728 0.9211,3.36578 -1.495,0.82715 -3.04718,1.6931 -4.63816,2.58969 -0.93539,-1.41943 -2.54476,-2.36503 -4.37878,-2.36503 -2.88993,0 -5.23249,2.34461 -5.23249,5.23657 0,0.85778 0.20628,1.66451 0.57185,2.37728 -1.64613,0.98237 -3.30654,1.9872 -4.96902,3.01246 -0.66581,-0.56164 -1.52563,-0.90067 -2.46715,-0.90067 -2.10974,0 -3.8253,1.70944 -3.8253,3.82122 0,0.33903 0.0511,0.66581 0.13275,0.98033 -6.69277,4.35223 -13.09756,8.90666 -18.28307,13.33446 -6.04942,-13.52236 -14.96833,-28.36815 -27.38373,-40.45883 l -0.0368,-0.0368 c -1.45211,-1.43168 -2.65709,-0.8006 -0.98646,0.98237 0.0204,0.0225 0.0429,0.047 0.0633,0.0674 10.53849,11.34114 18.81611,27.74728 24.45502,42.70949 -21.39764,18.27285 -44.98875,53.67484 -19.13269,64.80561 3.76404,1.61958 5.47961,-1.47662 3.86208,-2.43448 -0.29409,-0.16747 -11.80678,-6.39457 -4.48703,-25.51704 l 18.42398,0 c 0.98645,0 1.78706,-0.79855 1.78706,-1.78705 0,-0.98441 -0.80061,-1.78705 -1.78706,-1.78705 l -16.8963,0 c 0.98645,-2.11382 2.19348,-4.36449 3.64558,-6.76424 l 13.25072,0 c 0.98645,0 1.78706,-0.80264 1.78706,-1.78705 0,-0.99054 -0.80061,-1.78705 -1.78706,-1.78705 l -10.97351,0 c 1.36837,-2.04643 2.90218,-4.18885 4.62999,-6.43543 l 6.34352,0 c 0.98645,0 1.78706,-0.79651 1.78706,-1.78705 0,-0.98849 -0.80061,-1.78705 -1.78706,-1.78705 l -3.50874,0 c 2.00149,-2.44468 4.20926,-4.99761 6.65396,-7.67512 0.0225,-0.0184 0.0429,-0.0429 0.0613,-0.0674 l 3.89476,-4.07652 c 5.45917,-5.43263 11.76184,-10.62223 18.18911,-15.38089 0.56164,0.32269 1.21314,0.51059 1.90755,0.51059 2.11381,0 3.8253,-1.71149 3.8253,-3.82123 0,-0.25938 -0.0266,-0.5065 -0.0756,-0.75158 1.7074,-1.19273 3.40664,-2.3487 5.08952,-3.46586 0.89455,0.71482 2.02805,1.14576 3.25755,1.14576 2.894,0 5.23861,-2.34666 5.23861,-5.23861 0,-0.43502 -0.0592,-0.85779 -0.15727,-1.25605 1.67473,-1.04568 3.30452,-2.03417 4.86486,-2.97161 1.21725,1.27238 2.92056,2.06686 4.81586,2.06686 3.6803,0 6.66825,-2.98795 6.66825,-6.66621 0,-0.64538 -0.098,-1.27238 -0.27163,-1.86671 2.84498,-1.58281 4.92205,-2.70406 5.93504,-3.27796 1.61142,2.35687 4.32365,3.91313 7.39942,3.91313 4.94451,0 8.95159,-4.00912 8.95159,-8.95567 0,-4.94656 -4.00708,-8.95568 -8.95159,-8.95568"
       inkscape:connector-curvature="0"
       sodipodi:nodetypes="csccssccssccssccccccccccsssccsssccssscccccssccssccssccssc" />
    <flowRoot
       xml:space="preserve"
       id="flowRoot3371"
       style="font-style:italic;font-variant:normal;font-weight:500;font-stretch:normal;font-size:40px;line-height:125%;font-family:'URW Chancery L';-inkscape-font-specification:'URW Chancery L Medium Italic';letter-spacing:0px;word-spacing:0px;fill:#000000;fill-opacity:1;stroke:none;stroke-width:1px;stroke-linecap:butt;stroke-linejoin:miter;stroke-opacity:1"
       transform="translate(463.02514,335.90745)"><flowRegion
         id="flowRegion3373"><rect
           id="rect3375"
           width="122.22845"
           height="53.033009"
           x="16.162441"
           y="16.846004"
           style="font-style:italic;font-variant:normal;font-weight:500;font-stretch:normal;font-family:'URW Chancery L';-inkscape-font-specification:'URW Chancery L Medium Italic'" /></flowRegion><flowPara
         id="flowPara3377">openEbenc</flowPara></flowRoot>    <flowRoot
       xml:space="preserve"
       id="flowRoot3379"
       style="font-style:italic;font-variant:normal;font-weight:500;font-stretch:normal;font-size:40px;line-height:125%;font-family:'URW Chancery L';-inkscape-font-specification:'URW Chancery L Medium Italic';letter-spacing:0px;word-spacing:0px;fill:#000000;fill-opacity:1;stroke:none;stroke-width:1px;stroke-linecap:butt;stroke-linejoin:miter;stroke-opacity:1"
       transform="translate(463.02514,335.90745)"><flowRegion
         id="flowRegion3381"><rect
           id="rect3383"
           width="164.65486"
           height="56.063465"
           x="-106.57109"
           y="14.320622"
           style="font-style:italic;font-variant:normal;font-weight:500;font-stretch:normal;font-family:'URW Chancery L';-inkscape-font-specification:'URW Chancery L Medium Italic'" /></flowRegion><flowPara
         id="flowPara3385" /></flowRoot>    <flowRoot
       xml:space="preserve"
       id="flowRoot3397"
       style="font-style:italic;font-variant:normal;font-weight:500;font-stretch:normal;font-size:40px;line-height:125%;font-family:'URW Chancery L';-inkscape-font-specification:'URW Chancery L Medium Italic';letter-spacing:0px;word-spacing:0px;fill:#000000;fill-opacity:1;stroke:none;stroke-width:1px;stroke-linecap:butt;stroke-linejoin:miter;stroke-opacity:1"><flowRegion
         id="flowRegion3399"><rect
           id="rect3401"
           width="283.34778"
           height="102.53048"
           x="33.840111"
           y="-114.9789"
           style="font-style:italic;font-variant:normal;font-weight:500;font-stretch:normal;font-family:'URW Chancery L';-inkscape-font-specification:'URW Chancery L Medium Italic'" /></flowRegion><flowPara
         id="flowPara3403" /></flowRoot>    <flowRoot
       xml:space="preserve"
       id="flowRoot3423"
       style="font-style:italic;font-variant:normal;font-weight:500;font-stretch:normal;font-size:40px;line-height:125%;font-family:'URW Chancery L';-inkscape-font-specification:'URW Chancery L Medium Italic';letter-spacing:0px;word-spacing:0px;fill:#000000;fill-opacity:1;stroke:none;stroke-width:1px;stroke-linecap:butt;stroke-linejoin:miter;stroke-opacity:1"><flowRegion
         id="flowRegion3425"><rect
           id="rect3427"
           width="159.09903"
           height="61.114227"
           x="-17.67767"
           y="-108.41291"
           style="font-style:italic;font-variant:normal;font-weight:500;font-stretch:normal;font-family:'URW Chancery L';-inkscape-font-specification:'URW Chancery L Medium Italic'" /></flowRegion><flowPara
         id="flowPara3429" /></flowRoot>    <flowRoot
       xml:space="preserve"
       id="flowRoot3509"
       style="font-style:normal;font-weight:normal;font-size:40px;line-height:125%;font-family:sans-serif;letter-spacing:0px;word-spacing:0px;fill:#000000;fill-opacity:1;stroke:none;stroke-width:1px;stroke-linecap:butt;stroke-linejoin:miter;stroke-opacity:1"><flowRegion
         id="flowRegion3511"><rect
           id="rect3513"
           width="259.10413"
           height="129.29953"
           x="-238.90108"
           y="10.785089" /></flowRegion><flowPara
         id="flowPara3515" /></flowRoot>    <flowRoot
       xml:space="preserve"
       id="flowRoot3517"
       style="font-style:italic;font-variant:normal;font-weight:normal;font-stretch:normal;font-size:40px;line-height:125%;font-family:sans-serif;-inkscape-font-specification:'sans-serif Italic';letter-spacing:0px;word-spacing:0px;fill:#000000;fill-opacity:1;stroke:none;stroke-width:1px;stroke-linecap:butt;stroke-linejoin:miter;stroke-opacity:1"><flowRegion
         id="flowRegion3519"><rect
           id="rect3521"
           width="323.24881"
           height="66.164993"
           x="-231.83"
           y="140.58969"
           style="font-style:italic;font-variant:normal;font-weight:normal;font-stretch:normal;font-family:sans-serif;-inkscape-font-specification:'sans-serif Italic'" /></flowRegion><flowPara
         id="flowPara3523" /></flowRoot>    <g
       transform="scale(1.222077,0.81827905)"
       style="font-style:normal;font-variant:normal;font-weight:600;font-stretch:normal;font-size:27.5px;line-height:125%;font-family:'URW Gothic L';-inkscape-font-specification:'URW Gothic L Semi-Bold';text-align:end;letter-spacing:0px;word-spacing:0px;text-anchor:end;fill:#2b0000;fill-opacity:1;stroke:none;stroke-width:1px;stroke-linecap:butt;stroke-linejoin:miter;stroke-opacity:1"
       id="text3525-2" />
    <g
       transform="scale(1.222077,0.81827905)"
       style="font-style:normal;font-variant:normal;font-weight:normal;font-stretch:normal;font-size:27.5px;line-height:125%;font-family:'URW Gothic L';-inkscape-font-specification:'URW Gothic L';text-align:end;letter-spacing:0px;word-spacing:0px;text-anchor:end;fill:#ffffff;fill-opacity:1;stroke:none;stroke-width:1px;stroke-linecap:butt;stroke-linejoin:miter;stroke-opacity:1"
       id="text3525-2-5">
      <path
         d="m 548.12742,369.34481 c -5.83,0 -10.7525,4.7575 -10.7525,10.395 0,5.9125 4.785,10.6425 10.7525,10.6425 5.885,0 10.725,-4.7575 10.725,-10.505 0,-5.8025 -4.84,-10.5325 -10.725,-10.5325 z m 0,1.87 c 4.73,0 8.6625,3.9325 8.6625,8.69 0,4.7025 -3.9325,8.6075 -8.6625,8.6075 -4.785,0 -8.69,-3.905 -8.69,-8.7175 0,-4.6475 3.9875,-8.58 8.69,-8.58 z"
         style="font-style:normal;font-variant:normal;font-weight:normal;font-stretch:normal;font-size:27.5px;font-family:'URW Gothic L';-inkscape-font-specification:'URW Gothic L';fill:#ffffff"
         id="path3616" />
      <path
         d="m 561.79878,374.98231 0,20.3225 2.035,0 0,-7.865 c 1.32,1.925 3.355,2.9425 5.8575,2.9425 4.4825,0 7.975,-3.4375 7.975,-7.8375 0,-4.4825 -3.4375,-7.92 -7.92,-7.92 -2.5575,0 -4.6475,1.045 -5.9125,2.9425 l 0,-2.585 -2.035,0 z m 7.865,1.5125 c 3.3825,0 5.94,2.585 5.94,6.05 0,3.3825 -2.5575,5.9675 -5.9125,5.9675 -3.4375,0 -5.995,-2.6125 -5.995,-6.0775 0,-3.3275 2.64,-5.94 5.9675,-5.94 z"
         style="font-style:normal;font-variant:normal;font-weight:normal;font-stretch:normal;font-size:27.5px;font-family:'URW Gothic L';-inkscape-font-specification:'URW Gothic L';fill:#ffffff"
         id="path3618" />
      <path
         d="m 595.6139,383.17731 c 0,-2.0625 -0.275,-3.3275 -1.0175,-4.6475 -1.3475,-2.3925 -3.96,-3.905 -6.82,-3.905 -4.3725,0 -7.81,3.4375 -7.81,7.81 0,4.455 3.4925,7.9475 7.9475,7.9475 1.925,0 3.74,-0.715 5.115,-2.0075 1.0725,-1.0175 1.7875,-2.0625 2.2,-3.3 l -2.1175,0 c -0.8525,2.0625 -2.97,3.4375 -5.2525,3.4375 -3.08,0 -5.6925,-2.365 -5.8575,-5.335 l 13.6125,0 z m -13.5575,-1.8425 c 0.55,-2.8875 2.8325,-4.84 5.6925,-4.84 2.915,0 5.1425,1.8425 5.83,4.84 l -11.5225,0 z"
         style="font-style:normal;font-variant:normal;font-weight:normal;font-stretch:normal;font-size:27.5px;font-family:'URW Gothic L';-inkscape-font-specification:'URW Gothic L';fill:#ffffff"
         id="path3620" />
      <path
         d="m 598.42964,390.02481 2.035,0 0,-8.2775 c 0,-1.6775 0.22,-2.5575 0.7975,-3.41 0.7975,-1.155 2.2,-1.8425 3.795,-1.8425 1.485,0 2.8325,0.605 3.6575,1.6225 0.715,0.935 0.99,2.035 0.99,4.015 l 0,7.8925 2.035,0 0,-7.8925 c 0,-2.53 -0.3575,-3.8775 -1.32,-5.17 -1.1825,-1.485 -2.9975,-2.3375 -5.115,-2.3375 -1.98,0 -3.575,0.77 -4.84,2.31 l 0,-1.9525 -2.035,0 0,15.0425 z"
         style="font-style:normal;font-variant:normal;font-weight:normal;font-stretch:normal;font-size:27.5px;font-family:'URW Gothic L';-inkscape-font-specification:'URW Gothic L';fill:#ffffff"
         id="path3622" />
    </g>
    <path
       id="path238-7"
       transform="translate(656.71352,277.57001)"
       style="fill:#d40000;fill-opacity:1;fill-rule:nonzero;stroke:none;opacity:0.99999999"
       d="m 110.28711,54.972656 -3.89453,4.076172 c 4.86078,14.0697 7.20607,26.071316 6.6914,30.072266 -0.2798,2.17714 -1.68427,3.085965 -2.25,3.353515 -0.90475,0.42685 -1.27685,1.68092 0.14258,2.09961 3.46025,1.018081 5.90062,-1.36859 7.08399,-4.16211 1.67983,0.870896 3.7912,1.394532 6.08593,1.394532 5.41075,0 9.91407,-2.925137 9.91407,-6.435547 0,-3.71295 -4.33684,-6.615235 -9.94922,-6.615235 -2.27317,0 -4.36857,0.523844 -6.04102,1.392579 -1.16393,-6.190526 -3.66393,-15.167251 -7.7832,-25.175782 z M 124.14648,81.5 c 2.99104,0 5.41016,1.711 5.41016,3.78125 0,2.09274 -2.41952,3.78125 -5.37695,3.78125 -2.77487,0 -5.00682,-1.423308 -5.35742,-3.308594 -0.0112,-0.20601 -0.0267,-0.425216 -0.0449,-0.65039 C 118.88152,83.116671 121.2867,81.5 124.14648,81.5 Z m 75.6651,10.014494 4.46975,0 0,-6.323252 c 0,-1.237647 0.16803,-1.93523 0.63853,-2.497797 0.63854,-0.76509 1.81479,-1.192641 3.2935,-1.192641 2.62135,0 3.62957,1.035123 3.62957,3.645433 l 0,6.368257 4.46974,0 0,-7.043337 c 0,-1.822717 -0.33607,-2.835337 -1.24346,-3.757947 -1.24346,-1.282652 -3.39432,-1.980235 -6.04928,-1.980235 -1.91561,0 -3.39432,0.360043 -4.7386,1.170139 l 0,-5.018096 -4.46975,0 0,16.629476 z m -8.18754,-4.095487 c -1.10903,1.147636 -2.3861,1.642695 -4.23449,1.642695 -3.09186,0 -5.41075,-1.620192 -5.41075,-3.802952 0,-2.182759 2.21807,-3.757946 5.30992,-3.757946 2.01643,0 3.42793,0.562567 4.33532,1.710203 l 5.04107,0 c -0.63854,-1.26015 -1.24346,-1.912727 -2.52053,-2.700321 -1.81479,-1.125134 -4.26811,-1.755208 -6.85586,-1.755208 -5.51156,0 -9.81327,2.857839 -9.81327,6.525775 0,3.62293 4.43614,6.525775 9.9477,6.525775 4.33532,0 7.69603,-1.597689 9.24196,-4.388021 l -5.04107,0 z m -33.49316,4.095487 4.46975,0 0,-5.873198 c 0,-1.665198 0.16804,-2.385284 0.73936,-2.992856 0.70575,-0.742588 1.882,-1.147636 3.29349,-1.147636 1.14265,0 2.08365,0.270032 2.68857,0.787593 0.60493,0.540065 0.87379,1.462674 0.87379,3.127872 l 0,6.098225 4.46975,0 0,-6.683294 c 0,-2.227765 -0.33608,-3.307894 -1.34429,-4.275509 -1.20986,-1.170139 -3.22628,-1.800213 -5.81403,-1.800213 -2.11725,0 -3.59596,0.42755 -5.24271,1.485176 l 0,-1.192642 -4.13368,0 0,12.466482 z m -3.07925,-4.905583 c 0.13443,-0.427551 0.16803,-0.697583 0.16803,-1.147637 0,-3.87046 -4.06646,-6.705796 -9.61163,-6.705796 -5.47796,0 -9.81328,2.902844 -9.81328,6.57078 0,3.645434 4.40253,6.48077 10.08214,6.48077 3.05824,0 5.44435,-0.742588 7.39356,-2.250267 0.70575,-0.585069 1.17625,-1.102631 1.47871,-1.732706 l -4.87303,0 c -1.14264,0.900107 -2.25167,1.237647 -4.10007,1.237647 -2.65496,0 -4.60417,-0.945112 -5.14189,-2.452791 l 14.41746,0 z m -14.55188,-2.632813 c 0.70575,-1.59769 2.52053,-2.475294 5.17549,-2.475294 2.75579,0 4.57057,0.877604 5.14189,2.475294 l -10.31738,0 z M 91.634766,66.787109 C 85.178869,74.323262 79.581388,82.745917 76.527344,90.708984 l 26.695316,0 c 0.96887,-0.02025 1.75,-0.807465 1.75,-1.783203 0,-0.98441 -0.80066,-1.787109 -1.78711,-1.787109 l -16.896488,0 c 0.98645,-2.11382 2.192432,-4.363922 3.644532,-6.763672 l 13.251956,0 c 0.98645,0 1.78711,-0.802699 1.78711,-1.787109 0,-0.99054 -0.80066,-1.78711 -1.78711,-1.78711 l -10.974612,0 c 1.36837,-2.04643 2.903039,-4.188967 4.630859,-6.435547 l 6.343753,0 c 0.98645,0 1.78711,-0.796569 1.78711,-1.787109 0,-0.98849 -0.80066,-1.787109 -1.78711,-1.787109 l -3.509769,0 c 0.0011,-0.0014 0.0028,-0.0025 0.0039,-0.0039 l -8.044922,0 z" />
  </g>
</svg>
