<?xml version="1.0" encoding="UTF-8" standalone="no"?>
<!-- Created with Inkscape (http://www.inkscape.org/) -->

<svg
   xmlns:dc="http://purl.org/dc/elements/1.1/"
   xmlns:cc="http://creativecommons.org/ns#"
   xmlns:rdf="http://www.w3.org/1999/02/22-rdf-syntax-ns#"
   xmlns:svg="http://www.w3.org/2000/svg"
   xmlns="http://www.w3.org/2000/svg"
   xmlns:sodipodi="http://sodipodi.sourceforge.net/DTD/sodipodi-0.dtd"
   xmlns:inkscape="http://www.inkscape.org/namespaces/inkscape"
   width="96.80687"
   height="72.90947"
   id="svg3873"
   version="1.1"
   inkscape:version="0.48.4 r9939"
   sodipodi:docname="ELIXIR-Spain.svg"
   inkscape:export-filename="/home/jmfernandez/docs/Logos/ELIXIR-Spain.png"
   inkscape:export-xdpi="300"
   inkscape:export-ydpi="300">
  <defs
     id="defs3875" />
  <sodipodi:namedview
     id="base"
     pagecolor="#ffffff"
     bordercolor="#666666"
     borderopacity="1.0"
     inkscape:pageopacity="0.0"
     inkscape:pageshadow="2"
     inkscape:zoom="5.6"
     inkscape:cx="81.813144"
     inkscape:cy="30.143436"
     inkscape:document-units="px"
     inkscape:current-layer="layer1"
     showgrid="false"
     fit-margin-top="0"
     fit-margin-left="0"
     fit-margin-right="0"
     fit-margin-bottom="0"
     inkscape:window-width="1600"
     inkscape:window-height="850"
     inkscape:window-x="0"
     inkscape:window-y="0"
     inkscape:window-maximized="1" />
  <metadata
     id="metadata3878">
    <rdf:RDF>
      <cc:Work
         rdf:about="">
        <dc:format>image/svg+xml</dc:format>
        <dc:type
           rdf:resource="http://purl.org/dc/dcmitype/StillImage" />
        <dc:title></dc:title>
      </cc:Work>
    </rdf:RDF>
  </metadata>
  <g
     inkscape:label="Layer 1"
     inkscape:groupmode="layer"
     id="layer1"
     transform="translate(-463.02514,-335.90745)">
    <g
       id="g3934">
      <g
         transform="matrix(1.25,0,0,-1.25,554.35326,335.90745)"
         id="g236">
        <path
           id="path238"
           style="fill:#f46b17;fill-opacity:1;fill-rule:nonzero;stroke:none"
           d="m 0,0 c -2.422,0 -4.384,-1.963 -4.384,-4.385 0,-0.758 0.193,-1.47 0.53,-2.094 -0.435,-0.216 -1.452,-0.726 -2.875,-1.464 -0.53,1.084 -1.641,1.834 -2.932,1.834 -1.802,0 -3.264,-1.461 -3.264,-3.264 0,-0.602 0.167,-1.164 0.451,-1.648 -0.732,-0.405 -1.492,-0.829 -2.271,-1.268 -0.458,0.695 -1.246,1.158 -2.144,1.158 -1.415,0 -2.562,-1.148 -2.562,-2.564 0,-0.42 0.101,-0.815 0.28,-1.164 -0.806,-0.481 -1.619,-0.973 -2.433,-1.475 -0.326,0.275 -0.747,0.441 -1.208,0.441 -1.033,0 -1.873,-0.837 -1.873,-1.871 0,-0.166 0.025,-0.326 0.065,-0.48 -3.277,-2.131 -6.413,-4.361 -8.952,-6.529 -2.962,6.621 -7.329,13.89 -13.408,19.81 l -0.018,0.018 c -0.711,0.701 -1.301,0.392 -0.483,-0.481 0.01,-0.011 0.021,-0.023 0.031,-0.033 5.16,-5.553 9.213,-13.586 11.974,-20.912 -10.477,-8.947 -22.028,-26.281 -9.368,-31.731 1.843,-0.793 2.683,0.723 1.891,1.192 -0.144,0.082 -5.781,3.131 -2.197,12.494 l 9.021,0 c 0.483,0 0.875,0.391 0.875,0.875 0,0.482 -0.392,0.875 -0.875,0.875 l -8.273,0 c 0.483,1.035 1.074,2.137 1.785,3.312 l 6.488,0 c 0.483,0 0.875,0.393 0.875,0.875 0,0.485 -0.392,0.875 -0.875,0.875 l -5.373,0 c 0.67,1.002 1.421,2.051 2.267,3.151 l 3.106,0 c 0.483,0 0.875,0.39 0.875,0.875 0,0.484 -0.392,0.875 -0.875,0.875 l -1.718,0 c 0.98,1.197 2.061,2.447 3.258,3.758 0.011,0.009 0.021,0.021 0.03,0.033 2.38,-6.889 3.529,-12.766 3.277,-14.725 -0.137,-1.066 -0.825,-1.511 -1.102,-1.642 -0.443,-0.209 -0.625,-0.823 0.07,-1.028 2.216,-0.652 3.582,1.547 3.827,3.315 0.248,1.779 -0.965,8.301 -4.165,16.076 2.673,2.66 5.759,5.201 8.906,7.531 0.275,-0.158 0.594,-0.25 0.934,-0.25 1.035,0 1.873,0.838 1.873,1.871 0,0.127 -0.013,0.248 -0.037,0.368 0.836,0.584 1.668,1.15 2.492,1.697 0.438,-0.35 0.993,-0.561 1.595,-0.561 1.417,0 2.565,1.149 2.565,2.565 0,0.213 -0.029,0.42 -0.077,0.615 0.82,0.512 1.618,0.996 2.382,1.455 0.596,-0.623 1.43,-1.012 2.358,-1.012 1.802,0 3.265,1.463 3.265,3.264 0,0.316 -0.048,0.623 -0.133,0.914 1.393,0.775 2.41,1.324 2.906,1.605 0.789,-1.154 2.117,-1.916 3.623,-1.916 2.421,0 4.383,1.963 4.383,4.385 C 4.383,-1.963 2.421,0 0,0"
           inkscape:connector-curvature="0" />
      </g>
      <g
         transform="matrix(1.25,0,0,-1.25,492.00701,379.7697)"
         id="g240">
        <path
           id="path242"
           style="fill:#463e3c;fill-opacity:1;fill-rule:nonzero;stroke:none"
           d="m 0,0 c 0.163,0.355 0.299,0.738 0.465,1.203 0.162,0.438 0.326,0.983 0.462,1.61 l 1.667,7.208 c 0.135,0.739 0.244,1.284 0.273,1.612 0.054,0.244 0.054,0.517 0.054,0.873 l 0,0.328 3.767,0 L 4.422,2.813 C 4.258,2.104 4.15,1.559 4.095,1.176 4.012,0.766 4.012,0.385 4.012,0 L 0,0 z"
           inkscape:connector-curvature="0" />
      </g>
      <g
         transform="matrix(1.25,0,0,-1.25,479.16764,367.24283)"
         id="g244">
        <path
           id="path246"
           style="fill:#463e3c;fill-opacity:1;fill-rule:nonzero;stroke:none"
           d="m 0,0 c 0.082,0.246 0.11,0.492 0.11,0.654 0,0.11 -0.028,0.192 -0.054,0.276 -0.111,0.162 -0.383,0.244 -0.766,0.244 l -5.788,0 C -6.879,1.174 -7.152,1.092 -7.316,0.93 -7.509,0.764 -7.644,0.465 -7.698,0 l -0.684,-2.947 7.699,0 L 0,0 z m 0.873,-10.021 -11.165,0 c -1.12,0 -1.883,0.248 -2.295,0.765 -0.217,0.301 -0.327,0.709 -0.327,1.229 0,0.382 0.055,0.847 0.191,1.392 l 1.393,6.061 c 0.3,1.228 0.736,2.101 1.338,2.623 0.627,0.517 1.474,0.764 2.621,0.764 l 8.244,0 c 1.175,0 1.94,-0.247 2.32,-0.764 0.245,-0.301 0.358,-0.713 0.358,-1.258 0,-0.41 -0.057,-0.846 -0.193,-1.365 l -0.901,-4.014 -11.222,0 -0.6,-2.621 c -0.055,-0.27 -0.08,-0.492 -0.08,-0.627 0,-0.137 0,-0.246 0.054,-0.299 0.08,-0.164 0.327,-0.246 0.709,-0.246 l 8.19,0 c 0.793,0 1.529,0.082 2.131,0.217 l -0.766,-1.857 z"
           inkscape:connector-curvature="0" />
      </g>
      <g
         transform="matrix(1.25,0,0,-1.25,483.73802,379.7697)"
         id="g248">
        <path
           id="path250"
           style="fill:#463e3c;fill-opacity:1;fill-rule:nonzero;stroke:none"
           d="m 0,0 c 0.175,0.398 0.319,0.826 0.494,1.35 0.174,0.488 0.348,1.101 0.491,1.806 l 2.869,13.281 c 0.172,0.827 0.289,1.44 0.346,1.807 0.03,0.338 0.059,0.795 0.059,1.346 l 3.997,0 L 4.692,3.156 C 4.52,2.359 4.402,1.746 4.345,1.316 4.259,0.859 4.259,0.432 4.259,0 L 0,0 z"
           inkscape:connector-curvature="0" />
      </g>
      <g
         transform="matrix(1.25,0,0,-1.25,519.23726,379.7697)"
         id="g252">
        <path
           id="path254"
           style="fill:#463e3c;fill-opacity:1;fill-rule:nonzero;stroke:none"
           d="m 0,0 c 0.162,0.355 0.299,0.738 0.463,1.203 0.164,0.438 0.328,0.983 0.464,1.61 l 1.666,7.208 c 0.136,0.739 0.245,1.284 0.272,1.612 0.055,0.244 0.055,0.517 0.055,0.873 l 0,0.328 3.767,0 L 4.423,2.813 C 4.258,2.104 4.149,1.559 4.096,1.176 4.013,0.766 4.013,0.385 4.013,0 L 0,0 z"
           inkscape:connector-curvature="0" />
      </g>
      <g
         transform="matrix(1.25,0,0,-1.25,541.31977,366.42495)"
         id="g256">
        <path
           id="path258"
           style="fill:#463e3c;fill-opacity:1;fill-rule:nonzero;stroke:none"
           d="m 0,0 c -0.411,0.027 -0.819,0.057 -1.283,0.057 l -1.829,0 c -0.354,0 -0.655,-0.082 -0.819,-0.219 C -4.149,-0.328 -4.286,-0.6 -4.394,-1.01 l -1.531,-6.853 c -0.271,-1.065 -0.381,-1.883 -0.381,-2.51 l 0,-0.303 -3.986,0 c 0.162,0.412 0.326,0.795 0.436,1.176 0.11,0.354 0.247,0.902 0.438,1.637 l 1.638,7.209 c 0.19,0.711 0.272,1.256 0.355,1.664 0.055,0.385 0.055,0.765 0.055,1.148 l 3.356,0 -0.135,-1.31 c 0.218,0.435 0.492,0.763 0.846,0.982 0.354,0.219 0.82,0.328 1.447,0.328 l 3.277,0 0.79,-1.418 C 2.048,0.602 1.912,0.437 1.747,0.219 1.557,-0.025 1.421,-0.135 1.339,-0.135 0.848,-0.082 0.408,-0.025 0,0"
           inkscape:connector-curvature="0" />
      </g>
      <g
         transform="matrix(1.25,0,0,-1.25,501.15739,358.11933)"
         id="g260">
        <path
           id="path262"
           style="fill:#463e3c;fill-opacity:1;fill-rule:nonzero;stroke:none"
           d="m 0,0 c 0,-1.02 -0.827,-1.848 -1.848,-1.848 -1.02,0 -1.848,0.828 -1.848,1.848 0,1.021 0.828,1.85 1.848,1.85 C -0.827,1.85 0,1.021 0,0"
           inkscape:connector-curvature="0" />
      </g>
      <g
         transform="matrix(1.25,0,0,-1.25,517.01564,400.60958)"
         id="g264">
        <path
           id="path266"
           style="fill:#463e3c;fill-opacity:1;fill-rule:nonzero;stroke:none"
           d="m 0,0 -0.269,-1.056 -3.358,0 c -0.279,0 -0.441,-0.087 -0.488,-0.258 l -0.11,-0.41 c -0.006,-0.033 -0.009,-0.059 -0.009,-0.079 0,-0.113 0.126,-0.17 0.378,-0.17 l 1.814,0 c 0.863,0 1.295,-0.289 1.295,-0.867 0,-0.112 -0.017,-0.232 -0.05,-0.358 l -0.419,-1.674 c -0.252,-1.003 -0.856,-1.505 -1.813,-1.505 l -4.703,0 0.258,1.057 3.409,0 c 0.252,0 0.402,0.092 0.448,0.278 l 0.11,0.438 c 0.013,0.041 0.02,0.077 0.02,0.111 0,0.112 -0.119,0.169 -0.359,0.169 l -2.083,0 c -0.691,0 -1.036,0.252 -1.036,0.757 0,0.16 0.027,0.352 0.079,0.578 l 0.379,1.524 c 0.107,0.426 0.296,0.768 0.569,1.027 C -5.64,-0.146 -5.274,0 -4.843,0 L 0,0 z"
           inkscape:connector-curvature="0" />
      </g>
      <g
         transform="matrix(1.25,0,0,-1.25,523.56714,402.58958)"
         id="g268">
        <path
           id="path270"
           style="fill:#463e3c;fill-opacity:1;fill-rule:nonzero;stroke:none"
           d="m 0,0 c 0.027,0.119 0.04,0.213 0.04,0.279 0,0.166 -0.102,0.249 -0.309,0.249 l -1.315,0 -0.498,-1.993 1.315,0 c 0.273,0 0.449,0.166 0.529,0.498 L 0,0 z M 2.441,0.06 2.163,-1.057 C 1.917,-2.033 1.296,-2.521 0.3,-2.521 l -2.641,0 -0.568,-2.272 -2.432,0 1.595,6.377 5.002,0 C 2.1,1.584 2.521,1.272 2.521,0.647 2.521,0.481 2.495,0.285 2.441,0.06"
           inkscape:connector-curvature="0" />
      </g>
      <g
         transform="matrix(1.25,0,0,-1.25,531.37714,405.11758)"
         id="g272">
        <path
           id="path274"
           style="fill:#463e3c;fill-opacity:1;fill-rule:nonzero;stroke:none"
           d="M 0,0 -0.369,2.152 -1.884,0 0,0 z m 3.039,-2.771 -2.581,0 -0.299,1.714 -2.8,0 -1.265,-1.714 -1.176,0 4.644,6.377 2.43,0 1.047,-6.377 z"
           inkscape:connector-curvature="0" />
      </g>
      <g
         transform="matrix(1.25,0,0,-1.25,542.00214,400.60958)"
         id="g276">
        <path
           id="path278"
           style="fill:#463e3c;fill-opacity:1;fill-rule:nonzero;stroke:none"
           d="m 0,0 -1.595,-6.377 -2.431,0 L -2.432,0 0,0 z"
           inkscape:connector-curvature="0" />
      </g>
      <g
         transform="matrix(1.25,0,0,-1.25,552.56489,400.60958)"
         id="g280">
        <path
           id="path282"
           style="fill:#463e3c;fill-opacity:1;fill-rule:nonzero;stroke:none"
           d="m 0,0 -1.595,-6.377 -3.148,0 -1.316,5.281 -0.019,0 -1.316,-5.281 -1.056,0 1.595,6.377 3.178,0 1.285,-5.201 0.031,0 L -1.057,0 0,0 z"
           inkscape:connector-curvature="0" />
      </g>
    </g>
  </g>
</svg>
